<svg xmlns="http://www.w3.org/2000/svg" width="72.08" height="58.51" viewBox="0 0 72.08 58.51"><title>Ресурс 1</title><path d="M72.08,44.81c-1.22,1.29-2.43,2.59-3.66,3.88-.18.18-.4.32-.58.5-2.47,2.46-4.95,4.92-7.4,7.4a2.74,2.74,0,0,1-1.86.87c-3.93.24-7.86.51-11.79.77-1.55.1-3.11.22-4.66.28a3.45,3.45,0,0,1-1.31-.2c-5.68-2.09-11.35-4.21-17-6.3a4,4,0,0,0-1.37-.25c-6.82,0-13.64,0-20.46,0-1.22,0-1.95-.61-2-1.64a1.65,1.65,0,0,1,1.39-1.7,5.62,5.62,0,0,1,.92-.06c6.84,0,13.68,0,20.53,0a5,5,0,0,1,1.72.3c4.11,1.51,8.21,3.06,12.31,4.59q2.36.87,4.72,1.7a2.48,2.48,0,0,0,.89.14q7.62-.48,15.25-1a1,1,0,0,0,.62-.26q4.56-4.53,9.11-9.09a.63.63,0,0,0,.08-.18,3.13,3.13,0,0,0-2.9,0A29.79,29.79,0,0,0,56.49,50a1.85,1.85,0,0,1-1.6.56l-8.74-.79c-1.1-.1-2.21-.18-3.31-.33A2.53,2.53,0,0,1,41.69,49q-5.57-4.35-11.1-8.74A1.71,1.71,0,0,1,29.92,38c.43-.84,1.2-1.07,2.31-.76,3.61,1,7.21,2,10.84,3,2.39.62,4.26-.51,5-2.94-.69-.2-1.37-.41-2.06-.6q-7.11-2-14.23-3.93a4.88,4.88,0,0,0-1.32-.17h-28c-.31,0-.61,0-.92,0a1.68,1.68,0,0,1-.19-3.3,3.92,3.92,0,0,1,.84-.07c9.6,0,19.21,0,28.81,0a10.49,10.49,0,0,1,2.62.52Q41.93,32,50.26,34.31c1.5.42,1.93,1.14,1.55,2.61a9.58,9.58,0,0,1-3.2,5.36,7.24,7.24,0,0,1-6.5,1.17,23.73,23.73,0,0,0-2.59-.52c1.32,1,2.59,2.17,4,3.11.47.32,1.23.17,1.85.29a1.91,1.91,0,0,0,1.7-.58,33.39,33.39,0,0,1,7.5-4.61,6.69,6.69,0,0,1,6.73.57,1.05,1.05,0,0,0,1.25,0,7.22,7.22,0,0,1,8.32.82,10.57,10.57,0,0,1,1.23,1.5ZM58.35,44.1a3.19,3.19,0,0,0-2.43.18c-1.2.6-2.37,1.25-3.54,1.9-.33.18-.63.42-1.06.71,1.08.1,2,.2,2.86.26a.76.76,0,0,0,.51-.14C55.9,46.07,57.08,45.11,58.35,44.1Z"/><path d="M44.6,0a12.21,12.21,0,0,1,8,3.06,11.27,11.27,0,0,1,4,9.08,11.53,11.53,0,0,1-1.49,5.17,29.72,29.72,0,0,1-5.47,7c-1.16,1.2-2.44,2.29-3.69,3.39a1.71,1.71,0,0,1-2.69,0c-1.86-1.73-3.67-3.52-5.49-5.29a18.55,18.55,0,0,1-4.5-6.91A11.34,11.34,0,0,1,37.19,2.52,12.11,12.11,0,0,1,44.6,0Zm0,24.37a32.81,32.81,0,0,0,6.16-6.71,24.38,24.38,0,0,0,2.28-4.5,5.62,5.62,0,0,0-.33-3.83,8.51,8.51,0,0,0-14-3.57,7.77,7.77,0,0,0-2.6,7.42,10.08,10.08,0,0,0,1.75,3.72A38.11,38.11,0,0,0,44.62,24.37Z" fill="#fbbb1a"/><path d="M71.82,11.85a13.41,13.41,0,0,1-3,8.74,7,7,0,0,1-1.23,1.14,1.65,1.65,0,0,1-2.19-.22,1.69,1.69,0,0,1-.14-2.14c.24-.32.53-.6.79-.91a9.57,9.57,0,0,0-.43-12.7c-.93-1-.87-2.22.13-2.83a1.69,1.69,0,0,1,2.08.23,11.13,11.13,0,0,1,3.51,5.89C71.63,10.15,71.72,11.28,71.82,11.85Z"/><path d="M22.3,2.66c1,.06,1.53.36,1.82,1a1.72,1.72,0,0,1-.31,1.9,12.51,12.51,0,0,0-1.9,2.5,13,13,0,0,0-1,3.63,7.52,7.52,0,0,0,.85,4.65A16.08,16.08,0,0,0,23.68,19a1.79,1.79,0,0,1,.08,2.58,1.87,1.87,0,0,1-2.61-.14,13,13,0,0,1,0-18.15A4.86,4.86,0,0,1,22.3,2.66Z"/><path d="M27.12,7.46a1.78,1.78,0,0,1,1.81,1,1.63,1.63,0,0,1-.3,1.9,2.74,2.74,0,0,0-.7,2.92,4.4,4.4,0,0,0,.69,1.13,1.74,1.74,0,0,1-.08,2.42,1.7,1.7,0,0,1-2.46-.16,6.19,6.19,0,0,1,0-8.55A5.35,5.35,0,0,1,27.12,7.46Z"/><path d="M64.87,12.35a6.24,6.24,0,0,1-1.71,4.28,1.69,1.69,0,1,1-2.55-2.22,2.81,2.81,0,0,0,0-4,1.7,1.7,0,1,1,2.56-2.22A6.26,6.26,0,0,1,64.87,12.35Z"/><path d="M50.28,11.91a5.66,5.66,0,1,1-5.57-5.69A5.68,5.68,0,0,1,50.28,11.91Zm-3.4,0a2.26,2.26,0,1,0-2.26,2.25A2.27,2.27,0,0,0,46.88,11.89Z" fill="#fbbb1a"/></svg>