<svg xmlns="http://www.w3.org/2000/svg" width="72.92" height="67.74" viewBox="0 0 72.92 67.74"><title>Ресурс 2</title><path d="M.59,59.09a1.56,1.56,0,0,1,1.24-.73c1.68-.25,3.35-.56,5-.78a9.23,9.23,0,0,1,4.5.7q8.59,3.27,17.2,6.57a4,4,0,0,0,3.35-.11q10.2-4.8,20.41-9.57c.91-.43,1.27-1.06,1-1.76s-1-1.07-2.05-.83L36.61,55.86a.74.74,0,0,0-.67.61,3.51,3.51,0,0,1-4.3,2.4c-3.88-1-7.73-2.13-11.59-3.21a1,1,0,0,1-.77-1.26c.2-.54.76-.77,1.5-.57l10.31,2.86a8.61,8.61,0,0,0,1.22.28,1.44,1.44,0,0,0,1.57-.84c.21-.62-.13-1-.65-1.37-5.09-3.21-10.16-6.46-15.29-9.63A13.49,13.49,0,0,0,7.73,43.64c-1.8.37-3.62.65-5.42,1a1.56,1.56,0,0,1-1.72-.51v-.78a2.47,2.47,0,0,1,1.65-.69c2.18-.37,4.35-.8,6.53-1.14a14.71,14.71,0,0,1,10.24,2c5.21,3.21,10.35,6.51,15.53,9.77l.06,0c.68,1,1.58.71,2.56.48,4.52-1,9.07-2,13.58-3.1C53.57,50,55.66,52,55.51,54a3.36,3.36,0,0,1-2.16,2.89C50,58.44,46.65,60,43.3,61.59s-6.74,3.17-10.12,4.73c-.7.32-1.45.56-2.18.83H29.32c-.56-.19-1.14-.36-1.69-.57q-8.49-3.22-17-6.48a8,8,0,0,0-4.57-.44c-1.27.25-2.58.38-3.85.63A1.47,1.47,0,0,1,.6,59.74C.59,59.52.59,59.31.59,59.09Z"/><path d="M31.1,67.74H29.22l-.62-.2c-.4-.13-.8-.26-1.19-.41q-8.49-3.22-17-6.48a7.56,7.56,0,0,0-4.25-.42c-.66.13-1.33.23-2,.32s-1.26.19-1.88.31a2,2,0,0,1-2.21-.77L0,59.93v-1l.08-.14a2.14,2.14,0,0,1,1.66-1l2.11-.33c1-.16,1.95-.32,2.94-.45a9.56,9.56,0,0,1,4.79.74l3.12,1.19c4.7,1.79,9.39,3.57,14.08,5.38a3.4,3.4,0,0,0,2.89-.09l14.16-6.64,6.25-2.93c.93-.43.76-.88.71-1s-.26-.71-1.38-.47l-6.34,1.42-8.34,1.87c-.2,0-.2,0-.23.18A3.94,3.94,0,0,1,34.67,59a4.12,4.12,0,0,1-3.18.43c-3.15-.83-6.33-1.73-9.4-2.6l-2.19-.62a1.69,1.69,0,0,1-1.09-.84,1.44,1.44,0,0,1-.07-1.17,1.69,1.69,0,0,1,2.2-.93l5.63,1.56,4.75,1.32a7.4,7.4,0,0,0,1.07.24.9.9,0,0,0,.95-.45c.05-.16.12-.35-.41-.68l-4.57-2.89c-3.5-2.22-7.13-4.52-10.72-6.74a12.8,12.8,0,0,0-9.78-1.41c-1,.21-2.06.39-3.06.57l-2.36.43a2.19,2.19,0,0,1-2.29-.73L0,44.33V43.14L.17,43a2.89,2.89,0,0,1,1.94-.88h.07l2.55-.45c1.3-.24,2.65-.48,4-.69a15.24,15.24,0,0,1,10.63,2c3.67,2.26,7.37,4.6,10.95,6.87l4.58,2.9a.64.64,0,0,1,.22.2c.39.55.8.52,1.84.27l.1,0c1.91-.45,3.83-.87,5.74-1.3,2.57-.57,5.23-1.17,7.83-1.8a4.63,4.63,0,0,1,4.14.88A3.67,3.67,0,0,1,56.09,54a3.91,3.91,0,0,1-2.5,3.38L45.88,61l-5.17,2.42-7.3,3.41c-.5.23-1,.42-1.53.6l-.68.25Zm-1.69-1.17h1.48l.6-.22c.5-.18,1-.35,1.43-.56l7.29-3.41L45.38,60l7.71-3.61a2.8,2.8,0,0,0,1.83-2.41A2.52,2.52,0,0,0,54,51.85a3.49,3.49,0,0,0-3.11-.63c-2.61.63-5.27,1.22-7.85,1.8-1.91.43-3.83.85-5.73,1.3l-.1,0c-.95.22-2.12.5-3-.64l-4.55-2.88c-3.57-2.27-7.27-4.61-10.93-6.86a14.05,14.05,0,0,0-9.84-1.87c-1.32.21-2.66.45-4,.69l-2.56.46H2.29a2.45,2.45,0,0,0-1.1.35v.32c.2.19.47.27,1,.16l2.38-.43c1-.17,2-.35,3-.56a13.93,13.93,0,0,1,10.63,1.56c3.59,2.22,7.22,4.52,10.73,6.74l4.56,2.89a1.65,1.65,0,0,1,.89,2,2,2,0,0,1-2.19,1.23A8.28,8.28,0,0,1,31,57.28L26.25,56,20.63,54.4c-.24-.07-.67-.13-.8.21a.28.28,0,0,0,0,.24.58.58,0,0,0,.37.25l2.19.62c3.07.87,6.25,1.76,9.38,2.59a3,3,0,0,0,2.3-.31,2.75,2.75,0,0,0,1.29-1.67,1.31,1.31,0,0,1,1.11-1l8.34-1.87L51.16,52c1.91-.43,2.54.7,2.73,1.2.37,1-.12,1.93-1.31,2.49l-6.25,2.93L32.17,65.27a4.53,4.53,0,0,1-3.81.12C23.68,63.58,19,61.8,14.29,60l-3.12-1.19a8.44,8.44,0,0,0-4.22-.67c-1,.13-1.95.29-2.9.45l-2.12.34a1.06,1.06,0,0,0-.74.34v.26a.9.9,0,0,0,.93.19c.64-.13,1.3-.22,1.93-.32S5.34,59.22,6,59.1a8.67,8.67,0,0,1,4.9.47q8.47,3.26,17,6.48c.37.14.75.27,1.13.39A4.3,4.3,0,0,1,29.41,66.57Z"/><path d="M72.32,8.63a4,4,0,0,1-1.18.69c-1.71.33-3.43.62-5.17.83a9.79,9.79,0,0,1-4.69-.8c-5.67-2.17-11.34-4.32-17-6.5A3.92,3.92,0,0,0,41,3Q30.83,7.78,20.65,12.53c-1,.46-1.35,1.1-1,1.85a1.47,1.47,0,0,0,1.76.83q7.51-1.68,15-3.39A.89.89,0,0,0,37,11.3a3.62,3.62,0,0,1,4.56-2.41C45.27,9.91,49,11,52.76,12c.74.21,1.07.69.91,1.24s-.76.83-1.53.62l-10.65-3a4.47,4.47,0,0,0-.95-.2,1.34,1.34,0,0,0-1.45.8,1.06,1.06,0,0,0,.57,1.39l5.79,3.66c.68.43,1.36.84,2,1.29a.94.94,0,0,1,.39,1.4,1.12,1.12,0,0,1-1.6.19c-2.65-1.66-5.37-3.23-7.88-5.06A2.81,2.81,0,0,0,35.71,14c-4.5,1-9,2-13.51,3.08-2.85.69-4.93-1.35-4.78-3.32a3.4,3.4,0,0,1,2.22-2.92c3.5-1.62,7-3.27,10.49-4.91,3.1-1.45,6.2-2.91,9.31-4.35.81-.37,1.66-.66,2.49-1h1.68c.57.19,1.14.36,1.7.57q8.49,3.24,17,6.48a8,8,0,0,0,4.57.44c1.27-.25,2.58-.38,3.85-.63A1.47,1.47,0,0,1,72.34,8C72.32,8.2,72.32,8.42,72.32,8.63Z"/><path d="M47,20.28A2.06,2.06,0,0,1,45.95,20l-2.13-1.32c-1.93-1.19-3.93-2.41-5.79-3.76a2.26,2.26,0,0,0-2.19-.32l-5,1.12c-2.8.63-5.7,1.27-8.54,2a4.65,4.65,0,0,1-4.15-.88,3.69,3.69,0,0,1-1.35-3,4,4,0,0,1,2.56-3.4l7.29-3.41,5.5-2.58c2.34-1.1,4.67-2.19,7-3.27.57-.26,1.16-.49,1.73-.7l.78-.3.1,0H43.7l.09,0,.54.18c.4.13.79.25,1.18.4q8.49,3.24,17,6.48a7.56,7.56,0,0,0,4.25.42c.65-.13,1.31-.23,1.95-.32S70,7,70.59,6.88a2,2,0,0,1,2.21.77l.12.16V9l-.28.17-.32.22a2.56,2.56,0,0,1-1.05.54c-1.93.37-3.64.65-5.21.84a10.29,10.29,0,0,1-5-.84L55.56,7.8,44.09,3.41a3.32,3.32,0,0,0-2.82.12Q33.66,7.12,26,10.67l-5.12,2.4c-1,.47-.82.91-.74,1.09a.91.91,0,0,0,1.1.49c4.81-1.07,9.95-2.23,15-3.39a.4.4,0,0,0,.13-.13,4.21,4.21,0,0,1,5.26-2.79C44.83,9.2,48,10.1,51.11,11l1.82.51a1.88,1.88,0,0,1,1.2.86,1.38,1.38,0,0,1,.11,1.11,1.7,1.7,0,0,1-2.24,1l-5.85-1.62-4.91-1.36a3.56,3.56,0,0,0-.72-.15c-.6,0-.79.22-.88.44s-.15.36.34.67q2,1.28,4,2.53l2.32,1.46c.5.31,1,.62,1.49,1a1.72,1.72,0,0,1,.8,1.11,1.46,1.46,0,0,1-.26,1.11A1.58,1.58,0,0,1,47,20.28Zm-10.26-7a3.16,3.16,0,0,1,1.94.68c1.82,1.32,3.8,2.54,5.71,3.71L46.56,19c.17.1.57.31.81,0a.3.3,0,0,0,.07-.23.66.66,0,0,0-.31-.36c-.48-.32-1-.63-1.46-.93L43.35,16l-4-2.54a1.63,1.63,0,0,1-.79-2.11,1.9,1.9,0,0,1,2-1.15,4.63,4.63,0,0,1,1,.19l4.91,1.36,5.85,1.62c.16,0,.7.16.81-.22a.3.3,0,0,0,0-.22.84.84,0,0,0-.5-.3l-1.82-.51c-3.08-.87-6.27-1.77-9.42-2.62a3,3,0,0,0-3.85,2,1.46,1.46,0,0,1-1,.92c-5.06,1.16-10.21,2.31-15,3.39a2.06,2.06,0,0,1-2.43-1.17c-.21-.5-.5-1.75,1.32-2.6l5.13-2.4Q33.15,6,40.76,2.47a4.45,4.45,0,0,1,3.74-.15L56,6.71,61.5,8.82a9.36,9.36,0,0,0,4.42.77c1.54-.19,3.22-.46,5.13-.83a1.73,1.73,0,0,0,.58-.34l.12-.09V8.2A.9.9,0,0,0,70.82,8c-.65.13-1.31.23-1.95.32s-1.27.19-1.9.31a8.67,8.67,0,0,1-4.9-.47q-8.47-3.26-17-6.48c-.37-.14-.74-.26-1.12-.38l-.46-.15H42l-.69.27c-.55.21-1.13.43-1.66.67-2.34,1.08-4.68,2.18-7,3.27l-5.5,2.58-7.29,3.41A2.83,2.83,0,0,0,18,13.8a2.53,2.53,0,0,0,.94,2.08,3.49,3.49,0,0,0,3.12.64c2.84-.69,5.75-1.34,8.56-2l5-1.12A4.35,4.35,0,0,1,36.77,13.25Z"/><path d="M72.32,24.24c-.29.23-.56.6-.88.66-2.83.52-5.66,1.09-8.53,1.42a14.2,14.2,0,0,1-8.94-2c-1.5-.87-2.94-1.83-4.4-2.76-.64-.41-.78-.94-.42-1.44a1.11,1.11,0,0,1,1.6-.17c1.07.66,2.15,1.3,3.18,2a14,14,0,0,0,11.33,2.1c1.77-.38,3.57-.64,5.35-1a1.56,1.56,0,0,1,1.72.51C72.32,23.81,72.32,24,72.32,24.24Z"/><path d="M61.35,27a15,15,0,0,1-7.66-2.18c-1.16-.67-2.29-1.41-3.39-2.11l-1-.66a1.74,1.74,0,0,1-.86-1.14,1.43,1.43,0,0,1,.28-1.13,1.68,1.68,0,0,1,2.37-.32l.65.4c.85.52,1.72,1,2.56,1.63a13.34,13.34,0,0,0,10.88,2c1-.22,2.1-.41,3.13-.58l2.23-.4a2.18,2.18,0,0,1,2.29.73l.12.16v1.13l-.23.17a2.09,2.09,0,0,0-.22.2,1.79,1.79,0,0,1-.91.56l-1.65.3c-2.26.42-4.59.86-6.92,1.13A13.13,13.13,0,0,1,61.35,27ZM50,20.27a.42.42,0,0,0-.34.18.35.35,0,0,0-.08.23.71.71,0,0,0,.34.37l1,.66c1.09.7,2.21,1.42,3.35,2.09a13.6,13.6,0,0,0,8.57,1.93c2.29-.26,4.6-.7,6.84-1.11l1.65-.31a1.57,1.57,0,0,0,.31-.26l.09-.09v-.17c-.2-.19-.47-.27-1-.16-.75.15-1.5.28-2.26.41-1,.17-2.06.35-3.08.57a14.63,14.63,0,0,1-11.78-2.19c-.81-.55-1.67-1.08-2.51-1.59l-.65-.4A.92.92,0,0,0,50,20.27Z"/><path d="M36.47,19.09c9.4,0,16.7,7.54,15.8,16.25C51.16,46.06,38.1,52.09,28.19,46.45c-.71-.4-.92-.92-.6-1.45s.93-.62,1.7-.22c5.63,3,12.17,2.38,16.67-1.7,4-3.64,5.29-8.1,3.61-13s-5.46-8-11-8.79c-9-1.33-16.76,5.6-15.81,14a12.1,12.1,0,0,0,3,6.68,4.36,4.36,0,0,1,.35.4A.91.91,0,0,1,26,43.66a1.09,1.09,0,0,1-1.45-.1,9.36,9.36,0,0,1-.88-1c-7.08-8.92-1.22-21.78,10.61-23.29C35,19.18,35.73,19.15,36.47,19.09Z" fill="#fbbb1a"/><path d="M36.39,49.2A17.19,17.19,0,0,1,27.9,47a1.92,1.92,0,0,1-1-1.15,1.39,1.39,0,0,1,.19-1.11,1.71,1.71,0,0,1,2.47-.43,13.87,13.87,0,0,0,16-1.62c3.89-3.53,5.05-7.71,3.45-12.43s-5.24-7.62-10.53-8.4A13.64,13.64,0,0,0,26.92,25.4a11.69,11.69,0,0,0-3.58,9.77,11.55,11.55,0,0,0,2.87,6.36l.11.12a2.69,2.69,0,0,1,.27.32,1.48,1.48,0,0,1-.25,2.14A1.67,1.67,0,0,1,24.12,44a13.55,13.55,0,0,1-.93-1.06,14.3,14.3,0,0,1-2.1-14.47,16,16,0,0,1,13.09-9.76c.52-.07,1.05-.1,1.56-.14l.7,0h.05A17,17,0,0,1,49.1,24a14.59,14.59,0,0,1,3.76,11.37,15,15,0,0,1-8.4,11.83A17.36,17.36,0,0,1,36.39,49.2Zm-8-4.09a.37.37,0,0,0-.34.2c-.08.13-.06.19-.05.21s.08.22.45.43a16.14,16.14,0,0,0,15.44.25,13.86,13.86,0,0,0,7.77-10.91,13.49,13.49,0,0,0-3.47-10.47,15.89,15.89,0,0,0-11.73-5.14l-.69,0c-.49,0-1,.07-1.49.13a14.84,14.84,0,0,0-12.16,9,13.15,13.15,0,0,0,1.94,13.3,10.06,10.06,0,0,0,.84,1,.51.51,0,0,0,.68.06c.14-.11.24-.25,0-.54a2,2,0,0,0-.19-.22l-.13-.14a12.7,12.7,0,0,1-3.14-7,12.84,12.84,0,0,1,3.93-10.74,14.78,14.78,0,0,1,12.55-3.9c5.75.85,9.72,4,11.47,9.17s.44,9.86-3.77,13.67A15,15,0,0,1,29,45.3,1.4,1.4,0,0,0,28.42,45.11Z" fill="#fbbb1a"/><path d="M33.7,36.8c-1.26-.69-2.5-1.34-3.71-2-1.56-.87-1.74-2.33-.41-3.5,2.6-2.3,5.21-4.6,7.84-6.87a3.86,3.86,0,0,1,1.41-.79,2,2,0,0,1,2.07.63,1.8,1.8,0,0,1,.36,2c-.57,1.35-1.18,2.68-1.77,4l-.28.65L43,33A1.89,1.89,0,0,1,44.17,35a2.42,2.42,0,0,1-.72,1.28c-2.7,2.42-5.44,4.81-8.17,7.21a2.24,2.24,0,0,1-2.44.49,1.88,1.88,0,0,1-1.16-2.58c.56-1.35,1.18-2.68,1.77-4Zm8.45-2c-.28-.17-.47-.29-.66-.39-1.27-.68-2.55-1.36-3.81-2-.84-.46-1-.91-.63-1.73s.72-1.55,1.07-2.33.78-1.79,1.17-2.68l-.13-.09-8.38,7.38c.27.16.46.29.66.39l3.75,2c.91.49,1.07.94.67,1.82s-.75,1.63-1.12,2.45-.74,1.66-1.1,2.5l.14.09Z" fill="#fbbb1a"/></svg>