<svg xmlns="http://www.w3.org/2000/svg" width="73.85" height="63.09" viewBox="0 0 73.85 63.09"><title>Ресурс 3</title><path d="M14.34,7.23c.87.06,1.35.32,1.59.88a1.5,1.5,0,0,1-.27,1.67A11.55,11.55,0,0,0,14,12a11.65,11.65,0,0,0-.9,3.19,6.59,6.59,0,0,0,.75,4.08,14.77,14.77,0,0,0,1.7,2.33,1.56,1.56,0,0,1,.07,2.26,1.65,1.65,0,0,1-2.29-.12,11.39,11.39,0,0,1,0-15.91A4.16,4.16,0,0,1,14.34,7.23Z"/><path d="M18.57,11.44c.86,0,1.33.29,1.58.85A1.43,1.43,0,0,1,19.89,14a2.39,2.39,0,0,0-.61,2.56,3.78,3.78,0,0,0,.61,1,1.52,1.52,0,0,1-.07,2.12,1.49,1.49,0,0,1-2.16-.14,5.43,5.43,0,0,1,0-7.5A4.47,4.47,0,0,1,18.57,11.44Z"/><path d="M63.33,15.29A11.78,11.78,0,0,1,60.71,23a6.85,6.85,0,0,1-1.08,1,1.43,1.43,0,0,1-1.92-.19,1.48,1.48,0,0,1-.12-1.88c.21-.28.47-.52.69-.79A8.38,8.38,0,0,0,57.9,10,1.52,1.52,0,0,1,58,7.49a1.47,1.47,0,0,1,1.82.2,9.76,9.76,0,0,1,3.08,5.16A20.79,20.79,0,0,1,63.33,15.29Z"/><path d="M57.24,15.72a5.49,5.49,0,0,1-1.5,3.75,1.48,1.48,0,0,1-2.15.16,1.5,1.5,0,0,1-.09-2.11,2.45,2.45,0,0,0,0-3.55,1.49,1.49,0,1,1,2.24-2A5.49,5.49,0,0,1,57.24,15.72Z"/><path d="M16.69,62.8l-.5-.28a2.28,2.28,0,0,1-1.3-2.16c0-2.86,0-5.73,0-8.59a9.11,9.11,0,0,1,.47-1.87c-1.48-1.34-3.18-2.77-4.75-4.33s-3.43-2.78-4.53-4.76c-.31-.56-.68-1.1-1-1.68-.78-1.58-1.52-3.17-2.3-4.75-.64-1.27-1.33-2.52-2-3.79-.24-.48-.4-1-.6-1.51V28a14.65,14.65,0,0,1,1.06-1.8,4,4,0,0,1,5.93.24A8.93,8.93,0,0,1,8,27.72c.78,1.65,1.53,3.3,2.31,5a16.75,16.75,0,0,1,1.76-.62,6.15,6.15,0,0,1,5.54,1.46,20.55,20.55,0,0,0,6.14,3.53,10.22,10.22,0,0,1,6.1,5.77,13.48,13.48,0,0,1,.87,5.8c0,.51.12.71.65.8a2,2,0,0,1,1.73,2.08c0,3,0,6,0,9a2.24,2.24,0,0,1-1.87,2.21ZM28.24,49.34c0-1.08.05-2.09,0-3.08a8.33,8.33,0,0,0-2.67-5.58,5.62,5.62,0,0,0-1.82-1.13,27.8,27.8,0,0,1-6.21-3.18c-.81-.58-1.6-1.2-2.43-1.74a3.23,3.23,0,0,0-3.6.23c.57.59,1.12,1.2,1.71,1.76C15,38.34,16.86,40,18.7,41.74a.8.8,0,0,1,.16,1.15,1.36,1.36,0,0,1-2.11.18c-.81-.76-1.61-1.53-2.43-2.29-.64-.59-1.26-1.2-1.93-1.75a16.09,16.09,0,0,1-3.81-4.41c-.49-.86-.89-1.78-1.32-2.68-.59-1.25-1.17-2.52-1.75-3.78a1.43,1.43,0,0,0-1.93-.84A1.33,1.33,0,0,0,3,29.25c.5,1.06,1,2.1,1.55,3.15.73,1.5,1.49,3,2.18,4.52A16,16,0,0,0,11,42.72c2.37,2,4.59,4.2,6.89,6.29a1.52,1.52,0,0,0,.91.36c2.93,0,5.87,0,8.8,0ZM17.46,51.65v8.87H30.72V51.65Z"/><path d="M31.31,63.09H16.61l-.18-.1L16,62.78a2.57,2.57,0,0,1-1.45-2.41c0-1.19,0-2.37,0-3.56,0-1.65,0-3.36,0-5a4.62,4.62,0,0,1,.28-1.27c.05-.16.11-.33.16-.5l-1.24-1.1c-1.12-1-2.28-2-3.39-3.12-.45-.44-.93-.87-1.4-1.28A13.84,13.84,0,0,1,5.86,41c-.12-.22-.25-.43-.38-.64s-.41-.69-.59-1c-.37-.75-.74-1.51-1.1-2.27S3,35.34,2.59,34.52c-.32-.65-.66-1.29-1-1.93l-1-1.85a8.85,8.85,0,0,1-.43-1.07L0,29.2l0-.1V28l0-.07c.11-.19.21-.38.31-.57a8,8,0,0,1,.78-1.27,3.93,3.93,0,0,1,3.23-1.32,4,4,0,0,1,3.15,1.58l.06.09a8.53,8.53,0,0,1,.73,1.2C8.87,28.81,9.43,30,10,31.24l.52,1.12.29-.12A8.74,8.74,0,0,1,12,31.82a6.49,6.49,0,0,1,5.79,1.51,20.45,20.45,0,0,0,6.05,3.48,10.51,10.51,0,0,1,6.27,5.93,13.78,13.78,0,0,1,.9,5.92c0,.39,0,.45.41.52a2.3,2.3,0,0,1,2,2.36c0,2.82,0,5.78,0,9a2.51,2.51,0,0,1-2.08,2.48Zm-14.54-.58H31.23a1.93,1.93,0,0,0,1.63-1.92c0-3.27,0-6.22,0-9a1.74,1.74,0,0,0-1.49-1.8.93.93,0,0,1-.88-1.09A13.18,13.18,0,0,0,29.64,43a10,10,0,0,0-5.94-5.62,20.7,20.7,0,0,1-6.22-3.58,5.86,5.86,0,0,0-5.29-1.4,8.1,8.1,0,0,0-1.17.4c-.18.07-.37.15-.56.21l-.25.09-.74-1.6L7.79,27.85a7.67,7.67,0,0,0-.69-1.12L7,26.64a3.37,3.37,0,0,0-2.7-1.33,3.33,3.33,0,0,0-2.77,1.11A7.56,7.56,0,0,0,.85,27.6l-.28.52V29l.16.43a10.14,10.14,0,0,0,.41,1c.31.62.63,1.23,1,1.84s.68,1.29,1,2c.41.82.81,1.66,1.21,2.49S5,38.27,5.42,39c.17.34.37.68.57,1l.39.66a13.57,13.57,0,0,0,3.06,3.39c.47.42,1,.85,1.42,1.3,1.1,1.09,2.25,2.11,3.37,3.09l1.37,1.22.13.12,0,.17c-.07.25-.14.48-.21.7a3.89,3.89,0,0,0-.25,1.1c0,1.67,0,3.38,0,5,0,1.19,0,2.37,0,3.56a2,2,0,0,0,1.16,1.9l.39.22ZM31,60.8H17.18V51.36H31Zm-13.26-.57H30.44v-8.3H17.75Zm5.83-10.56c-1.59,0-3.19,0-4.78,0a1.78,1.78,0,0,1-1.1-.43c-.83-.75-1.64-1.51-2.46-2.28-1.43-1.34-2.91-2.72-4.42-4A16.35,16.35,0,0,1,6.45,37c-.51-1.12-1.06-2.25-1.6-3.34l-.58-1.17L3.66,31.3C3.34,30.66,3,30,2.72,29.38a1.83,1.83,0,0,1-.1-1.44,1.55,1.55,0,0,1,.87-.87,1.72,1.72,0,0,1,2.31,1l.42.92c.44,1,.88,1.91,1.33,2.85l.25.54c.33.71.67,1.44,1.06,2.12a15.61,15.61,0,0,0,3.74,4.33c.53.44,1,.92,1.54,1.38l.41.38,1.23,1.16L17,42.86a1.13,1.13,0,0,0,.91.33,1.06,1.06,0,0,0,.76-.47.52.52,0,0,0-.12-.78c-1.89-1.74-3.74-3.46-5.49-5.12-.41-.39-.81-.81-1.19-1.21-.18-.19-.35-.38-.53-.56l-.22-.23.25-.2a3.48,3.48,0,0,1,3.93-.25c.58.37,1.14.79,1.68,1.19l.76.56a27.8,27.8,0,0,0,6.14,3.15,5.89,5.89,0,0,1,1.91,1.19,8.6,8.6,0,0,1,2.76,5.77c.05.69,0,1.38,0,2.1,0,.33,0,.66,0,1v.27l-.51,0-.41,0H26ZM4.2,27.49a1.12,1.12,0,0,0-.49.11,1,1,0,0,0-.56.55,1.25,1.25,0,0,0,.09,1c.3.64.62,1.28.94,1.91.21.41.41.82.61,1.23l.58,1.17c.54,1.09,1.1,2.22,1.61,3.36a15.83,15.83,0,0,0,4.21,5.7c1.53,1.29,3,2.68,4.45,4l2.45,2.27a1.22,1.22,0,0,0,.72.28c2.38,0,4.76,0,7.15,0h1.65l.35,0c0-.25,0-.5,0-.74,0-.71,0-1.38,0-2a8.08,8.08,0,0,0-2.58-5.4,5.27,5.27,0,0,0-1.72-1.07,28.58,28.58,0,0,1-6.27-3.22L16.61,36c-.54-.4-1.09-.8-1.65-1.17a2.93,2.93,0,0,0-3,0c.1.11.2.22.31.32.38.4.76.81,1.16,1.19,1.75,1.65,3.6,3.37,5.49,5.11a1.08,1.08,0,0,1,.2,1.53,1.63,1.63,0,0,1-1.17.71,1.77,1.77,0,0,1-1.36-.48l-1.2-1.13L14.17,41l-.41-.39c-.49-.46-1-.93-1.51-1.36a16.11,16.11,0,0,1-3.87-4.49c-.4-.7-.74-1.45-1.08-2.16L7,32.07c-.45-1-.89-1.91-1.33-2.86l-.42-.92A1.27,1.27,0,0,0,4.2,27.49Z" fill="#020203"/><path d="M73.55,29.22c-.09.08-.21.14-.25.24-1,2-1.91,4.09-2.87,6.13-.34.72-.72,1.42-1.09,2.13a27.62,27.62,0,0,1-1.65,3.09,25.38,25.38,0,0,1-2.44,2.75c-.52.55-1.12,1-1.67,1.55l-4.24,4c-.35.32-.72.61-1.14,1a3.92,3.92,0,0,1,.62,2.87c0,2.27,0,4.54,0,6.81,0,1.45-.32,2.57-1.81,3.07H42.45a2.67,2.67,0,0,1-1.91-3c.1-2.64.05-5.29,0-7.93a2.28,2.28,0,0,1,2.05-2.51c.45-.1.48-.34.47-.69a14.67,14.67,0,0,1,.51-5.06,9.8,9.8,0,0,1,6.09-6.42,21.45,21.45,0,0,0,5.82-3.19,14.8,14.8,0,0,1,2-1.39,6.08,6.08,0,0,1,5.92.06c.38-.77.76-1.52,1.12-2.28.56-1.17,1.09-2.36,1.67-3.52a4.05,4.05,0,0,1,5.18-1.59,3.51,3.51,0,0,1,2,2.23,1.19,1.19,0,0,0,.26.34C73.55,28.34,73.55,28.78,73.55,29.22ZM45.44,49.3a1.67,1.67,0,0,0,.29.07c3.13,0,6.26,0,9.38,0a1,1,0,0,0,.58-.23c1.42-1.27,2.84-2.56,4.25-3.85,1.23-1.13,2.43-2.31,3.69-3.4a10.19,10.19,0,0,0,2.72-3.59c.23-.51.54-1,.79-1.48,1.25-2.53,2.5-5,3.72-7.59a1.31,1.31,0,0,0-.5-1.81,1.6,1.6,0,0,0-2.14.64c-.72,1.53-1.39,3.09-2.13,4.61-.53,1.09-1.13,2.14-1.71,3.21a2.23,2.23,0,0,1-.41.59C62.4,38,60.83,39.53,59.24,41c-.77.73-1.58,1.42-2.39,2.12a1.27,1.27,0,0,1-1.63.06A1.08,1.08,0,0,1,55,41.8a3,3,0,0,1,.47-.54l3.26-3c.59-.54,1.21-1.06,1.78-1.62s1.12-1.17,1.71-1.79a2.69,2.69,0,0,0-2.78-.5A15.62,15.62,0,0,0,56.75,36a22.48,22.48,0,0,1-5.91,3.17,8,8,0,0,0-5,5.07C45.24,45.86,45.43,47.59,45.44,49.3ZM43.08,60.54H56.36V51.67H43.08Z"/><path d="M57,63.09l-14.72,0a2.94,2.94,0,0,1-2.1-3.23c.1-2.55.06-5.16,0-7.67v-.24a2.55,2.55,0,0,1,2.27-2.79c.24,0,.25-.08.25-.41v-.08a14.66,14.66,0,0,1,.53-5.08A10.05,10.05,0,0,1,49.56,37a21.07,21.07,0,0,0,5.74-3.15l.26-.2a12.71,12.71,0,0,1,1.75-1.22,6.31,6.31,0,0,1,5.93-.07l.23-.47c.26-.52.51-1,.76-1.55L64.86,29c.34-.73.68-1.46,1-2.18a4.35,4.35,0,0,1,5.56-1.72,3.79,3.79,0,0,1,2.12,2.4l.1.12.11.12.06.08v1.54l-.09.09-.11.09a.28.28,0,0,0-.08.07c-.42.89-.84,1.8-1.27,2.7l-1.6,3.42c-.26.54-.54,1.08-.82,1.61l-.28.53c-.16.31-.31.62-.46.93A15.59,15.59,0,0,1,67.93,41a21,21,0,0,1-2,2.3l-.47.49c-.35.36-.73.7-1.09,1l-.59.53L62.1,46.87c-.85.8-1.7,1.6-2.56,2.39-.24.22-.49.43-.76.65l-.18.15a3.88,3.88,0,0,1,.51,2.44v.39c0,.72,0,1.45,0,2.17,0,1.52,0,3.09,0,4.63,0,1.24-.16,2.74-2,3.35Zm-14.57-.58H57c1.16-.4,1.61-1.21,1.57-2.78s0-3.13,0-4.65c0-.72,0-1.44,0-2.17v-.4A3.14,3.14,0,0,0,58,50.22L57.78,50l.22-.19.4-.33c.26-.22.51-.42.74-.63l2.56-2.39,1.68-1.58.6-.54c.36-.32.73-.65,1.06-1l.47-.49a18.76,18.76,0,0,0,1.95-2.23,13.94,13.94,0,0,0,1.16-2.11c.15-.32.31-.63.47-.94l.28-.53c.28-.53.55-1,.81-1.59.54-1.14,1.07-2.28,1.6-3.42L73,29.32a.7.7,0,0,1,.23-.25V28l0,0a1,1,0,0,1-.23-.35,3.22,3.22,0,0,0-1.81-2.06A3.75,3.75,0,0,0,66.42,27c-.36.72-.7,1.44-1,2.17l-.63,1.35c-.25.52-.51,1-.77,1.56l-.49,1L63.24,33a5.74,5.74,0,0,0-5.66-.07,11.53,11.53,0,0,0-1.66,1.16l-.26.2a21.54,21.54,0,0,1-5.9,3.23,9.5,9.5,0,0,0-5.91,6.25,14.1,14.1,0,0,0-.5,4.88v.08a.84.84,0,0,1-.7,1,2,2,0,0,0-1.82,2.22v.24c0,2.53.08,5.14,0,7.7A2.38,2.38,0,0,0,42.48,62.51Zm14.17-1.68H42.8V51.39H56.65Zm-13.28-.58H56.08V52H43.37Zm7.21-10.59H45.74a.66.66,0,0,1-.25,0l-.32-.08v-.22c0-.29,0-.59,0-.88a10.49,10.49,0,0,1,.48-4.29,8.33,8.33,0,0,1,5.15-5.24,22.12,22.12,0,0,0,5.83-3.13l.28-.2a14.28,14.28,0,0,1,2.45-1.51,3,3,0,0,1,3.07.53l.26.19-.22.23-.52.56c-.4.43-.78.84-1.19,1.24s-.75.7-1.14,1l-.66.59c-1.09,1-2.18,2-3.26,3a2.87,2.87,0,0,0-.43.48.82.82,0,0,0,.17,1,1,1,0,0,0,1.25,0l.41-.36c.65-.57,1.33-1.15,2-1.75,1.57-1.49,3.14-3,4.67-4.51l.06-.06a2.1,2.1,0,0,0,.36-.52l.43-.79c.43-.78.88-1.6,1.27-2.41s.85-1.82,1.26-2.71c.29-.63.57-1.27.87-1.89a1.69,1.69,0,0,1,1-.86,2.06,2.06,0,0,1,1.56.08,1.45,1.45,0,0,1,.74.83,1.78,1.78,0,0,1-.1,1.37c-1.18,2.44-2.38,4.88-3.58,7.31l-.14.28q-.17.33-.36.66a7.94,7.94,0,0,0-.43.81,10.44,10.44,0,0,1-2.8,3.69c-.8.69-1.59,1.43-2.35,2.15l-1.34,1.25c-1.41,1.29-2.82,2.58-4.25,3.85a1.24,1.24,0,0,1-.77.3C53.6,49.66,52.09,49.66,50.58,49.66Zm-4.85-.58h.56c2.94,0,5.89,0,8.83,0a.67.67,0,0,0,.39-.16c1.42-1.27,2.84-2.56,4.24-3.85l1.33-1.24c.76-.72,1.56-1.46,2.36-2.17a10,10,0,0,0,2.65-3.49c.13-.3.3-.58.45-.86s.24-.42.34-.63L67,36.4c1.2-2.43,2.4-4.87,3.58-7.31a1.22,1.22,0,0,0,.08-.93.84.84,0,0,0-.44-.5,1.45,1.45,0,0,0-1.12-.06,1.12,1.12,0,0,0-.65.57c-.29.63-.58,1.26-.86,1.89-.41.9-.83,1.82-1.26,2.73s-.85,1.65-1.29,2.44l-.43.78a3,3,0,0,1-.46.66l-.06.06c-1.52,1.49-3.1,3-4.67,4.51-.64.61-1.33,1.2-2,1.77l-.41.35a1.56,1.56,0,0,1-2,.06,1.39,1.39,0,0,1-.29-1.79,3.16,3.16,0,0,1,.52-.6l3.26-3,.66-.59c.38-.33.76-.67,1.12-1s.77-.79,1.17-1.22l.3-.32a2.26,2.26,0,0,0-2.23-.28,13,13,0,0,0-2.34,1.45l-.28.2a23,23,0,0,1-6,3.21,7.67,7.67,0,0,0-4.8,4.91,10,10,0,0,0-.44,4.06C45.72,48.63,45.72,48.86,45.73,49.08Z" fill="#020203"/><path d="M26.47,57.24c-.36-.06-.73-.1-1.08-.18a.87.87,0,0,1-.7-1c0-.48.18-.9.68-1a8.38,8.38,0,0,1,2.06-.1,1,1,0,0,1,.84,1.14,1.05,1.05,0,0,1-1,1c-.26,0-.52,0-.78,0A.07.07,0,0,0,26.47,57.24Z"/><path d="M47.24,57.23c-.34,0-.69-.06-1-.13a.92.92,0,0,1-.77-1,.91.91,0,0,1,.78-1A9.11,9.11,0,0,1,48.1,55,1,1,0,0,1,49,56.15a1.06,1.06,0,0,1-1.06,1c-.24,0-.48,0-.72,0Z"/><path d="M22.3,14.71V7.43c0-1,.16-1.23,1.1-1.61,4.23-1.69,8.46-3.37,12.67-5.1A2.74,2.74,0,0,1,38.32,1c3,1.17,5.9,2.37,8.85,3.57,1.19.48,2.38,1,3.58,1.44a1.13,1.13,0,0,1,.79,1.2c0,.9,0,1.79,0,2.69,0,3.8-.05,7.61,0,11.41A7.32,7.32,0,0,1,50,26.09a11.81,11.81,0,0,1-2.41,2.15c-1.15.85-2.38,1.6-3.58,2.4l-6.42,4.24a1.29,1.29,0,0,1-1.53,0c-1.88-1.26-3.76-2.53-5.65-3.78s-3.59-2.23-5.26-3.5a6.63,6.63,0,0,1-2.8-5.18c-.07-2.55,0-5.11,0-7.67Zm2.37.48h0c0,2.25,0,4.5,0,6.75a4.81,4.81,0,0,0,2.06,3.91c2.51,1.83,5.16,3.48,7.75,5.2.6.4,1.2.79,1.79,1.2a.87.87,0,0,0,1.21,0c.62-.5,1.32-.92,2-1.36,2.34-1.54,4.71-3,7-4.62a7,7,0,0,0,1.69-1.69A5,5,0,0,0,49,21.45c0-3.93,0-7.87,0-11.8,0-.63.17-1.4-.13-1.85s-1.06-.51-1.62-.74l-.12,0c-2.93-1.19-5.85-2.4-8.8-3.54-.62-.24-1.21-.75-2-.4-1.88.81-3.79,1.56-5.69,2.33s-3.5,1.46-5.28,2.11a.88.88,0,0,0-.71,1C24.69,10.73,24.67,13,24.67,15.19Z" fill="#fbbb1a"/><path d="M36.87,35.69a2,2,0,0,1-1.13-.37l-2.4-1.61L30.1,31.54c-.57-.38-1.15-.75-1.73-1.12C27.18,29.66,26,28.88,24.81,28a7.17,7.17,0,0,1-3-5.62c-.05-1.79,0-3.61,0-5.36,0-.59,0-1.18,0-1.76l0-.56V7.43a1.86,1.86,0,0,1,1.46-2.14l3-1.21c3.16-1.26,6.44-2.57,9.64-3.89a3.07,3.07,0,0,1,2.49.19l.19.08q3.3,1.3,6.6,2.66L47.39,4l1.12.46c.81.33,1.62.67,2.44,1a1.69,1.69,0,0,1,1.16,1.74c0,.61,0,1.23,0,1.84v.84c0,1.11,0,2.22,0,3.33,0,2.65,0,5.38,0,8.07a8,8,0,0,1-1.68,5.16,12.62,12.62,0,0,1-2.52,2.26c-.84.62-1.72,1.19-2.58,1.75l-1,.67L37.9,35.37A1.92,1.92,0,0,1,36.87,35.69Zm-14-21.55h0v.57c0,.78,0,1.55,0,2.33,0,1.75,0,3.55,0,5.32A6.06,6.06,0,0,0,25.5,27.1c1.1.84,2.31,1.61,3.48,2.35.59.37,1.17.75,1.75,1.13L34,32.75l2.4,1.61a.74.74,0,0,0,.9,0l6.42-4.24,1-.68c.84-.54,1.71-1.1,2.52-1.7a11.49,11.49,0,0,0,2.29-2A6.89,6.89,0,0,0,51,21.31c-.05-2.7,0-5.44,0-8.1,0-1.11,0-2.21,0-3.32V7.19c0-.38-.09-.54-.42-.66-.83-.32-1.65-.65-2.47-1l-1.12-.46-2.26-.91C42.5,3.28,40.3,2.39,38.1,1.52l-.2-.08a1.91,1.91,0,0,0-1.62-.19c-3.21,1.32-6.48,2.63-9.65,3.9l-3,1.21c-.73.29-.74.31-.74,1.08v6.7Zm14,18.91a1.6,1.6,0,0,1-.94-.34l-1.27-.85-.51-.34L31.9,30c-1.82-1.19-3.7-2.42-5.49-3.72a5.34,5.34,0,0,1-2.29-4.37c0-1.58,0-3.17,0-4.75V13.38c0-1.59,0-3.24,0-4.86A1.44,1.44,0,0,1,25.16,7c1.28-.47,2.57-1,3.81-1.51l1.44-.59L32,4.22c1.34-.54,2.73-1.09,4.07-1.68a2.3,2.3,0,0,1,2.08.22l.38.17c2.17.84,4.36,1.73,6.48,2.6l2.33,1,.13,0,.5.17a2.28,2.28,0,0,1,1.38.79,2.69,2.69,0,0,1,.24,1.68c0,.16,0,.33,0,.48v5.16q0,3.31,0,6.63a5.71,5.71,0,0,1-.94,3.45,7.69,7.69,0,0,1-1.83,1.82c-1.62,1.11-3.3,2.2-4.92,3.25l-2.12,1.38-.48.31a16.54,16.54,0,0,0-1.47,1A1.45,1.45,0,0,1,36.89,33.05ZM25.24,14.61h0v2.58c0,1.58,0,3.16,0,4.74a4.26,4.26,0,0,0,1.82,3.45c1.76,1.29,3.63,2.51,5.44,3.69l2.28,1.5.51.34c.43.29.87.57,1.29.87.26.18.32.17.52,0a17.68,17.68,0,0,1,1.57-1.09l.47-.3L41.28,29c1.61-1,3.28-2.13,4.89-3.23a6.5,6.5,0,0,0,1.55-1.55,4.5,4.5,0,0,0,.72-2.77c0-2.21,0-4.43,0-6.64V9.66c0-.18,0-.37,0-.56a2.21,2.21,0,0,0-.06-1,2,2,0,0,0-.75-.32A5.46,5.46,0,0,1,47,7.6l-.12,0-2.33-1c-2.11-.86-4.3-1.76-6.46-2.59-.16-.06-.31-.14-.47-.21-.48-.24-.76-.36-1.12-.2-1.36.59-2.75,1.15-4.1,1.69l-1.6.64-1.44.59c-1.26.52-2.56,1-3.86,1.53-.34.12-.33.15-.33.46,0,1.63,0,3.28,0,4.88Z" fill="#fbbb1a"/><path d="M34.12,22c.49-.65.95-1.25,1.39-1.86,1.32-1.83,2.62-3.67,3.94-5.5q1.58-2.19,3.18-4.36a6.43,6.43,0,0,1,.81-.92,1.24,1.24,0,0,1,1.57,0,1,1,0,0,1,.22,1.42c-.36.56-.8,1.07-1.19,1.62-1.39,1.94-2.76,3.89-4.16,5.83-1,1.41-2,2.8-3.06,4.2-.45.61-.9,1.22-1.36,1.82a1.21,1.21,0,0,1-1.69.29c-.84-.54-1.67-1.1-2.49-1.66s-1.51-1-2.24-1.58-.87-1-.42-1.64a1.26,1.26,0,0,1,1.86-.17Z" fill="#fbbb1a"/></svg>