<svg xmlns="http://www.w3.org/2000/svg" width="80.61" height="57.29" viewBox="0 0 80.61 57.29"><title>Ресурс 4</title><path d="M6.89,3.45c.82.3,1.21.68,1.29,1.29a1.51,1.51,0,0,1-.72,1.53A11.07,11.07,0,0,0,5.25,7.92a11.06,11.06,0,0,0-1.74,2.82,6.66,6.66,0,0,0-.41,4.13,14.22,14.22,0,0,0,1,2.71,1.57,1.57,0,0,1-.56,2.19A1.64,1.64,0,0,1,1.37,19,11.39,11.39,0,0,1,5.79,3.72,3.23,3.23,0,0,1,6.89,3.45Z" fill="#fbbb1a"/><path d="M9.72,8.08c.81.27,1.17.65,1.27,1.27a1.46,1.46,0,0,1-.7,1.55A2.46,2.46,0,0,0,9,13.22a3.8,3.8,0,0,0,.31,1.13,1.58,1.58,0,0,1-.64,2,1.45,1.45,0,0,1-2-.74A5.58,5.58,0,0,1,8.74,8.37,3.39,3.39,0,0,1,9.72,8.08Z" fill="#fbbb1a"/><path d="M78.85,16.19c-.83.25-1.35.17-1.77-.28a1.55,1.55,0,0,1-.31-1.68,11.35,11.35,0,0,0,.8-2.67,12.1,12.1,0,0,0-.25-3.34A6.73,6.73,0,0,0,75.25,4.6,14.64,14.64,0,0,0,72.9,3,1.61,1.61,0,0,1,72.07.85,1.59,1.59,0,0,1,74.22.17c5.41,2.49,8,9.66,5.37,15.14A4.21,4.21,0,0,1,78.85,16.19Z" fill="#fbbb1a"/><path d="M73.52,13.66a1.49,1.49,0,0,1-1.75-.25,1.47,1.47,0,0,1-.32-1.67,2.51,2.51,0,0,0-.3-2.65,3.74,3.74,0,0,0-.9-.73,1.57,1.57,0,0,1-.66-2,1.46,1.46,0,0,1,2-.62,5.56,5.56,0,0,1,2.52,7.14A4.52,4.52,0,0,1,73.52,13.66Z" fill="#fbbb1a"/><path d="M25.88,2.7c1,.18,2,.29,3,.55a11,11,0,0,1,5.58,3.33,13.27,13.27,0,0,1,2.29,3.57,19.57,19.57,0,0,1,1.17,4,29.51,29.51,0,0,1,.17,8.65c-.14,1.46-.29,2.92-.46,4.38a.91.91,0,0,0,.35.86,4.93,4.93,0,0,1,1.22,4.81A4.68,4.68,0,0,1,37.89,35a.76.76,0,0,0-.15.57c.13,1.29.28,2.57.44,3.86.26,2,.47,3.93.82,5.88a11.75,11.75,0,0,1,.28,3.64,7.93,7.93,0,0,1-1.42,3.55c-2.86,4.15-8.83,5-12.51,3.79a9.44,9.44,0,0,1-4.34-3,15.3,15.3,0,0,1-2.3-3.77c-.57-1.37-1.17-2.72-1.7-4.1-.61-1.6-1.15-3.22-1.71-4.84a10.64,10.64,0,0,1-.49-1.64,1.2,1.2,0,0,0-.64-.87,5.78,5.78,0,0,1-2.25-2.65,4.33,4.33,0,0,1-.22-2.81A6.74,6.74,0,0,1,12.4,31a1.62,1.62,0,0,0,.28-1.07c-.29-1.69-.46-3.4-.79-5.08a27.12,27.12,0,0,1-.16-9.12,22.88,22.88,0,0,1,1.09-4.29,13.32,13.32,0,0,1,2.76-4.67,12.16,12.16,0,0,1,7.42-4c.1,0,.19-.06.29-.08ZM14.37,29a1.39,1.39,0,0,0,.34-.09,6.71,6.71,0,0,1,4.51-.75,3.09,3.09,0,0,0,2.27-.4,7.17,7.17,0,0,1,6.32-.34.75.75,0,0,0,.74-.11,9.88,9.88,0,0,1,1.58-.82.92.92,0,0,1,1.13.56c.12.39-.12.7-.65,1a6.81,6.81,0,0,0-1.32.86c-.66.59-1,.66-1.72.26a5.05,5.05,0,0,0-6,.59A1.37,1.37,0,0,1,20,30a4,4,0,0,0-1.29-.3A5,5,0,0,0,14,31.76a3.8,3.8,0,0,0,.49,4.29,5.2,5.2,0,0,0,6.82.43,1.92,1.92,0,0,1,2.08-.38A5,5,0,0,0,28.52,35c.57-.52,1-.63,1.6-.27a5.21,5.21,0,0,0,4.53.41,4.16,4.16,0,0,0,2.77-2.88,3.63,3.63,0,0,0-1.74-3.84c-.51-.3-1.09-.48-1.6-.78a.85.85,0,0,1-.39-.63.79.79,0,0,1,.42-.61,1.93,1.93,0,0,1,.93-.06,3.73,3.73,0,0,1,.66.17c.21-1.61.48-3.17.61-4.73a26.2,26.2,0,0,0-.14-6.5A18.09,18.09,0,0,0,34.4,9.59a9.39,9.39,0,0,0-2.07-2.67,11.17,11.17,0,0,0-8.79-2.55,10,10,0,0,0-7.91,5.51A18.83,18.83,0,0,0,14,14a24.61,24.61,0,0,0-.63,4.2,17.42,17.42,0,0,0,.15,4.5C13.92,24.75,14.1,26.85,14.37,29Zm2.38,10a3.25,3.25,0,0,1,.21.44c.6,1.75,1.16,3.51,1.8,5.24.52,1.41,1.13,2.78,1.72,4.15a13.72,13.72,0,0,0,2.31,3.69,6.78,6.78,0,0,0,3.9,2.38c3.35.6,6.42,0,8.94-2.55a6.27,6.27,0,0,0,1.8-3.68,9.57,9.57,0,0,0-.19-2.43c-.15-1.18-.36-2.35-.51-3.53-.26-2-.51-4.07-.76-6.1,0-.08-.05-.16-.06-.22l-2.45.64c.19,1.35.38,2.71.59,4.07.23,1.52.44,3,.72,4.56a4.57,4.57,0,0,1-1.6,4.75,6.08,6.08,0,0,1-6.35,1,7.13,7.13,0,0,1-3.74-3.91c-.74-1.57-1.29-3.24-1.88-4.88-.43-1.2-.77-2.44-1.13-3.59C19,39,17.89,39,16.75,39Zm5.09-.75c.08.25.19.57.28.89.14.54.22,1.1.41,1.63.44,1.27,1,2.51,1.38,3.78a13.56,13.56,0,0,0,1.75,3.66,4.08,4.08,0,0,0,5,1.79A3.3,3.3,0,0,0,33,46.19a8.12,8.12,0,0,1-.21-.85c-.21-1.29-.43-2.58-.61-3.88-.14-1-.21-2-.33-3A3.8,3.8,0,0,0,31.54,37c-.15-.25-.7-.24-1.07-.36a3.06,3.06,0,0,0-.58-.2.84.84,0,0,0-.55.07,7.09,7.09,0,0,1-5.67,1.28C23,37.7,22.38,37.61,21.84,38.28Z"/><path d="M28.75,57.29a11.14,11.14,0,0,1-3.54-.54,9.93,9.93,0,0,1-4.58-3.21,15.5,15.5,0,0,1-2.37-3.9l-.48-1.12c-.42-1-.85-2-1.23-3-.48-1.27-.93-2.58-1.37-3.84l-.43-1.23a9.25,9.25,0,0,1-.43-1.5.67.67,0,0,0-.39-.51,6.2,6.2,0,0,1-2.45-2.89,4.89,4.89,0,0,1-.25-3.15,5.14,5.14,0,0,1,.56-1.29l.19-.36.05-.1A.89.89,0,0,0,12.2,30c-.13-.75-.24-1.5-.34-2.24-.13-.93-.27-1.9-.45-2.83a27.42,27.42,0,0,1-.16-9.29,23.74,23.74,0,0,1,1.11-4.39,13.78,13.78,0,0,1,2.87-4.85A12.75,12.75,0,0,1,23,2.25l.1,0,.26-.06H26l.92.15c.69.11,1.39.22,2.09.4a11.67,11.67,0,0,1,5.85,3.49,13.57,13.57,0,0,1,2.38,3.72,21.32,21.32,0,0,1,1.21,4.14,30.31,30.31,0,0,1,.18,8.8c-.12,1.35-.28,2.78-.46,4.39,0,.17,0,.24.17.39a5.49,5.49,0,0,1,1.37,5.41l0,.06a5.06,5.06,0,0,1-1.35,2.19.37.37,0,0,0,0,.15c.14,1.42.29,2.67.44,3.84.06.44.11.88.17,1.32.19,1.49.38,3,.65,4.53l0,.09A12.37,12.37,0,0,1,39.87,49a8.46,8.46,0,0,1-1.51,3.79C36.18,55.85,32.27,57.29,28.75,57.29ZM23.4,3.23h0l-.3.08A11.72,11.72,0,0,0,16,7.13a13,13,0,0,0-2.65,4.48,22.19,22.19,0,0,0-1.06,4.19,26.65,26.65,0,0,0,.15,8.94c.19,1,.33,1.94.46,2.89.1.72.21,1.47.33,2.2A1.92,1.92,0,0,1,13,31.14l-.05.09c-.07.13-.13.26-.2.38a4.08,4.08,0,0,0-.45,1,3.8,3.8,0,0,0,.19,2.48,5.17,5.17,0,0,0,2,2.42,1.74,1.74,0,0,1,.88,1.23,9,9,0,0,0,.39,1.33l.43,1.24c.43,1.26.88,2.55,1.35,3.81.38,1,.8,2,1.21,3l.48,1.13a14.47,14.47,0,0,0,2.22,3.63,8.94,8.94,0,0,0,4.1,2.88c3.68,1.24,9.28.21,11.9-3.59a7.35,7.35,0,0,0,1.33-3.32,11.23,11.23,0,0,0-.26-3.39l0-.09c-.27-1.52-.47-3.08-.66-4.59-.06-.44-.11-.88-.17-1.31-.15-1.18-.3-2.44-.45-3.87a1.23,1.23,0,0,1,.35-1,3.94,3.94,0,0,0,1.08-1.8l0-.06a4.37,4.37,0,0,0-1.08-4.2A1.41,1.41,0,0,1,37,27.16c.18-1.6.33-3,.46-4.37a28.77,28.77,0,0,0-.16-8.49,19.25,19.25,0,0,0-1.14-3.93A12.72,12.72,0,0,0,34,6.94a10.51,10.51,0,0,0-5.32-3.17,19.83,19.83,0,0,0-2-.38l-.89-.15H23.4ZM38.24,35.37ZM29,55.69a13.85,13.85,0,0,1-2.43-.23,7.36,7.36,0,0,1-4.21-2.55A14.61,14.61,0,0,1,20,49.08l-.12-.28c-.55-1.27-1.12-2.58-1.61-3.9s-.85-2.4-1.24-3.57l-.57-1.68a1.07,1.07,0,0,0-.09-.19l-.47-1h4.56l.12.37q.17.52.33,1.08c.25.82.5,1.67.8,2.5l.26.74a42.26,42.26,0,0,0,1.6,4.09A6.55,6.55,0,0,0,27,50.92,5.59,5.59,0,0,0,32.85,50a4,4,0,0,0,1.41-4.24c-.22-1.22-.4-2.46-.58-3.66l-.14-.92c-.14-1-.28-1.9-.41-2.84l-.24-1.7,3.41-.89.15.49a1.4,1.4,0,0,1,.08.31l.26,2.1c.16,1.33.33,2.67.5,4,.07.56.16,1.12.24,1.68s.19,1.23.27,1.85c0,.17.05.35.07.52a7.31,7.31,0,0,1,.11,2,6.72,6.72,0,0,1-1.95,4A9.39,9.39,0,0,1,29,55.69ZM17.56,39.56,18,41c.39,1.17.79,2.37,1.23,3.54s1,2.59,1.59,3.84l.12.28a13.59,13.59,0,0,0,2.22,3.55,6.2,6.2,0,0,0,3.6,2.21c3.49.63,6.26-.16,8.47-2.4a5.71,5.71,0,0,0,1.65-3.37,6.65,6.65,0,0,0-.11-1.75c0-.18-.05-.36-.08-.54-.08-.61-.17-1.22-.26-1.82s-.17-1.13-.25-1.7c-.17-1.33-.34-2.67-.5-4l-.21-1.72-1.43.37.11.76c.13.94.27,1.89.41,2.83l.14.92c.18,1.19.36,2.42.58,3.62a5.1,5.1,0,0,1-1.8,5.27,6.59,6.59,0,0,1-6.88,1,7.62,7.62,0,0,1-4-4.18A44.83,44.83,0,0,1,21,43.52l-.26-.74c-.3-.85-.56-1.71-.81-2.54l-.21-.69H17.56ZM29.09,50.83a4.67,4.67,0,0,1-3.88-2.28,14.15,14.15,0,0,1-1.82-3.8c-.23-.7-.5-1.41-.76-2.1S22.21,41.54,22,41c-.12-.36-.2-.73-.28-1.08,0-.2-.09-.4-.14-.59s-.13-.44-.19-.63l-.16-.51.18-.22a2.13,2.13,0,0,1,2.33-.66A6.63,6.63,0,0,0,29,36.09a1.23,1.23,0,0,1,.94-.17,2,2,0,0,1,.5.16l.17.07.32.07a1.44,1.44,0,0,1,1,.52,3.16,3.16,0,0,1,.33,1.35l0,.32c.05.43.09.85.14,1.28s.11,1.13.19,1.7c.15,1.11.34,2.23.52,3.32l.09.54c0,.17.08.34.12.51s.06.2.08.3a3.83,3.83,0,0,1-2.7,4.48A5.22,5.22,0,0,1,29.09,50.83ZM22.44,38.42c.06.19.13.4.19.62s.1.42.15.64a6.73,6.73,0,0,0,.25,1c.19.55.4,1.1.6,1.65s.54,1.42.77,2.15A12.82,12.82,0,0,0,26.08,48a3.56,3.56,0,0,0,4.37,1.59,2.76,2.76,0,0,0,2-3.2c0-.09-.05-.18-.07-.27a5.3,5.3,0,0,1-.15-.63l-.09-.54c-.18-1.1-.37-2.23-.52-3.35-.08-.58-.14-1.16-.19-1.74,0-.42-.08-.84-.13-1.26l0-.35a2.86,2.86,0,0,0-.16-.85,2.84,2.84,0,0,0-.34-.08l-.46-.1-.27-.1a1,1,0,0,0-.22-.08.43.43,0,0,0-.21,0,7.58,7.58,0,0,1-6,1.36C23,38.24,22.71,38.22,22.44,38.42Zm-4.23-.33a5.75,5.75,0,0,1-4.1-1.67,4.3,4.3,0,0,1-.54-5,5.45,5.45,0,0,1,5.2-2.29,5,5,0,0,1,1.45.34.85.85,0,0,0,1-.16,5.56,5.56,0,0,1,6.58-.66c.53.27.59.28,1.12-.19a7.06,7.06,0,0,1,1.42-.93c.13-.07.42-.24.39-.36a.38.38,0,0,0-.18-.18.34.34,0,0,0-.26,0,7.68,7.68,0,0,0-1.39.72l-.1.06a1.24,1.24,0,0,1-1.2.15,6.65,6.65,0,0,0-5.87.31,3.59,3.59,0,0,1-2.63.46,6.15,6.15,0,0,0-4.15.7,1.16,1.16,0,0,1-.32.1l-.14,0-.58.14-.08-.59c-.08-.65-.16-1.29-.23-1.93-.17-1.5-.33-2.92-.59-4.35a17.87,17.87,0,0,1-.16-4.64,24.27,24.27,0,0,1,.65-4.29A19,19,0,0,1,15.16,9.6a10.53,10.53,0,0,1,8.32-5.79,11.7,11.7,0,0,1,9.19,2.68,10,10,0,0,1,2.19,2.82,18.5,18.5,0,0,1,1.83,5.83,27.17,27.17,0,0,1,.15,6.63c-.09,1.09-.25,2.2-.4,3.27l-.21,1.49-.08.61L35.56,27l-.2-.06a1.81,1.81,0,0,0-.35-.09,1.84,1.84,0,0,0-.68,0,.48.48,0,0,0-.09.16s.09.11.13.14a6.18,6.18,0,0,0,.73.35,7.8,7.8,0,0,1,.87.43,4.17,4.17,0,0,1,2,4.45,4.71,4.71,0,0,1-3.11,3.23,5.73,5.73,0,0,1-5-.45c-.34-.2-.5-.23-1,.2a5.49,5.49,0,0,1-5.66,1.23,1.39,1.39,0,0,0-1.57.28A5.25,5.25,0,0,1,18.21,38.09Zm-.08-7.9a4.34,4.34,0,0,0-3.7,1.88,3.27,3.27,0,0,0,.44,3.6,4.65,4.65,0,0,0,6.1.4,2.43,2.43,0,0,1,2.59-.48,4.43,4.43,0,0,0,4.61-1,1.69,1.69,0,0,1,2.23-.33,4.66,4.66,0,0,0,4.09.36,3.62,3.62,0,0,0,2.43-2.52,3.08,3.08,0,0,0-1.51-3.23,6.54,6.54,0,0,0-.75-.37,8.25,8.25,0,0,1-.85-.41,1.38,1.38,0,0,1-.66-1.1,1.36,1.36,0,0,1,.74-1.1A2.58,2.58,0,0,1,35,25.77l.19,0c0-.3.08-.59.13-.89.16-1.1.31-2.14.39-3.2a26,26,0,0,0-.13-6.37,17.44,17.44,0,0,0-1.71-5.5A8.83,8.83,0,0,0,32,7.31a10.68,10.68,0,0,0-8.39-2.42,9.34,9.34,0,0,0-7.49,5.24,18.23,18.23,0,0,0-1.56,4,22.6,22.6,0,0,0-.61,4.1,16.63,16.63,0,0,0,.14,4.36c.26,1.46.44,3,.6,4.42l.15,1.25a7.07,7.07,0,0,1,4.5-.62,2.55,2.55,0,0,0,1.9-.34A7.67,7.67,0,0,1,28,26.94c.08,0,.09,0,.28-.08l.1-.06a9.66,9.66,0,0,1,1.57-.8,1.44,1.44,0,0,1,1.82.91c.13.44.08,1.08-.91,1.6a5.73,5.73,0,0,0-1.21.79,1.71,1.71,0,0,1-2.32.34,4.52,4.52,0,0,0-5.41.53,1.91,1.91,0,0,1-2.11.33,3.54,3.54,0,0,0-1.13-.26A2.18,2.18,0,0,0,18.13,30.19Z"/><path d="M58.05,2.7c1,.29,2.09.5,3.09.87a11.48,11.48,0,0,1,4.52,3.17A12.2,12.2,0,0,1,68,10.36c.41,1,.74,2.08,1.09,3.12a20.16,20.16,0,0,1,.7,5.19,8.18,8.18,0,0,1,.13,1.3c-.17,2-.37,4-.6,6.07-.11.93-.31,1.86-.48,2.78a3.69,3.69,0,0,1-.21.74c-.31.72.17,1.22.48,1.74a4.56,4.56,0,0,1,.47,3.29A5.29,5.29,0,0,1,67,38.08a.85.85,0,0,0-.32.36c-.22.64-.38,1.3-.6,1.94-.61,1.8-1.21,3.61-1.88,5.39-.45,1.19-1,2.35-1.51,3.51a14.54,14.54,0,0,1-3.57,5.16,9.87,9.87,0,0,1-7.58,2.27A11.53,11.53,0,0,1,46,54.89a9.38,9.38,0,0,1-2.72-2.68A9.54,9.54,0,0,1,42,48.84a10.08,10.08,0,0,1,.23-3.26c.18-1.92.51-3.82.75-5.73q.29-2.16.51-4.32a.94.94,0,0,0-.19-.66,4.87,4.87,0,0,1-1.36-3.12,5.36,5.36,0,0,1,.51-2.37,10.19,10.19,0,0,1,1.21-1.62,1,1,0,0,0,.09-.54c-.16-1.64-.29-3.28-.51-4.91A24.57,24.57,0,0,1,43,17.17c.09-1.25.32-2.5.51-3.75a3.8,3.8,0,0,1,.27-.78.92.92,0,0,1,1.13-.46.76.76,0,0,1,.62.94c-.12.72-.32,1.42-.41,2.15A31.83,31.83,0,0,0,45.18,23c.14,1.16.3,2.31.46,3.46.62-.13,1.27-.31,1.92-.4a7.44,7.44,0,0,1,5.34,1.32.76.76,0,0,0,.59.08,7.34,7.34,0,0,1,6.64.49,2.15,2.15,0,0,0,1.7.27,7.61,7.61,0,0,1,5.08.86c.19-1.35.39-2.63.54-3.92.19-1.6.44-3.2.48-4.8a23.87,23.87,0,0,0-.28-4.47,24,24,0,0,0-1.19-4.42,11.13,11.13,0,0,0-2.72-4.19,9.94,9.94,0,0,0-8.16-2.91,12.26,12.26,0,0,0-4.43,1.15A8.77,8.77,0,0,0,47.8,8.26c-.35.5-.69,1-1,1.54a1.07,1.07,0,0,1-1.46.22c-.34-.23-.38-.7-.1-1.18a11.58,11.58,0,0,1,7.66-5.69c.83-.19,1.67-.3,2.51-.44Zm6.49,36.48c-1.11-.09-2.08-.17-3.06-.22a.43.43,0,0,0-.35.25c-.41,1.28-.78,2.58-1.21,3.86s-.84,2.38-1.28,3.57a1,1,0,0,1-1.35.51c-.41-.16-.57-.59-.37-1.15.32-.89.71-1.76,1-2.66q.74-2.25,1.38-4.53c.21-.76-.35-1.27-1.11-1.09a7.49,7.49,0,0,1-6.28-1.19.68.68,0,0,0-.46-.1c-.59.17-1.16.37-1.73.56-.16,1.14-.33,2.3-.49,3.45-.28,1.94-.55,3.88-.87,5.82a3.08,3.08,0,0,0,1.22,3.21,4.09,4.09,0,0,0,4.7.17,7.86,7.86,0,0,1,1-.67,1,1,0,0,1,1.15.28.73.73,0,0,1-.09,1,6.9,6.9,0,0,1-1.32,1,6.15,6.15,0,0,1-6.38-.33,4.6,4.6,0,0,1-2.25-4.06,5.19,5.19,0,0,1,.19-.85q.45-3,.89-6c.14-1,.27-1.93.4-2.87l-2.44-.64a2.52,2.52,0,0,0-.15.42c-.21,1.61-.41,3.23-.63,4.84-.18,1.35-.38,2.7-.58,4-.31,2-.39,4,.9,5.77a8.57,8.57,0,0,0,2.15,2.1,9.63,9.63,0,0,0,4.72,1.53,7.77,7.77,0,0,0,5.75-1.65,12.91,12.91,0,0,0,3.29-4.6c.55-1.15,1-2.37,1.45-3.55.19-.48.4-1,.57-1.44Zm-1.89-1.64a5.54,5.54,0,0,0,3.25-.75,3.78,3.78,0,0,0,1.89-2.86,3.92,3.92,0,0,0-2.6-3.88,5.46,5.46,0,0,0-4.09,0,1.14,1.14,0,0,1-1.31-.29,3.67,3.67,0,0,0-.77-.59,5.36,5.36,0,0,0-5.42,0,1,1,0,0,1-1.32-.08,5.09,5.09,0,0,0-.65-.58,5.26,5.26,0,0,0-5.15-.61A3.88,3.88,0,0,0,44,30.33,3.54,3.54,0,0,0,46,34.78a5.22,5.22,0,0,0,5.33-.11,1,1,0,0,1,1.31.13,4.94,4.94,0,0,0,.69.61,5.25,5.25,0,0,0,5,.58,1.3,1.3,0,0,1,1.46.26A4.66,4.66,0,0,0,62.65,37.54Z"/><path d="M52.63,57.29c-.38,0-.76,0-1.16,0a12,12,0,0,1-5.78-1.9,9.93,9.93,0,0,1-2.87-2.83A10.36,10.36,0,0,1,41.48,49a6,6,0,0,1,.08-2.48c.06-.33.11-.63.14-.94.12-1.26.3-2.52.48-3.75.1-.66.19-1.33.28-2,.2-1.52.36-2.93.5-4.31a.51.51,0,0,0-.05-.24A5.47,5.47,0,0,1,41.4,31.8,5.71,5.71,0,0,1,42,29.18,4.61,4.61,0,0,1,42.78,28c.16-.18.31-.36.44-.53,0,0,0-.06,0-.18l-.11-1.14c-.12-1.23-.23-2.51-.4-3.75a24.72,24.72,0,0,1-.23-5.25c.07-1,.23-2,.39-3l.12-.8a2.83,2.83,0,0,1,.25-.76l.06-.14a1.44,1.44,0,0,1,1.78-.77,1.29,1.29,0,0,1,1,1.53c-.05.32-.12.64-.19,1s-.17.79-.22,1.17a30.85,30.85,0,0,0,.05,7.55c.09.79.2,1.58.31,2.36l.07.51h0c.44-.1.91-.21,1.38-.28a8,8,0,0,1,5.71,1.41l.12,0a7.83,7.83,0,0,1,7.09.54,1.64,1.64,0,0,0,1.33.2,7.83,7.83,0,0,1,4.75.59c0-.18.05-.36.08-.53.13-.9.26-1.78.36-2.66,0-.35.09-.7.13-1.06.15-1.21.31-2.47.35-3.7a23.37,23.37,0,0,0-.27-4.36A23.22,23.22,0,0,0,66,11.61a10.65,10.65,0,0,0-2.59-4,9.42,9.42,0,0,0-7.73-2.76,11.75,11.75,0,0,0-4.24,1.09,8.35,8.35,0,0,0-3.16,2.62c-.33.47-.64,1-.95,1.43l-.06.09a1.44,1.44,0,0,1-.94.62A1.64,1.64,0,0,1,45,10.44a1.36,1.36,0,0,1-.26-1.89,12.11,12.11,0,0,1,8-5.94c.58-.13,1.18-.23,1.76-.32l.78-.13h.09l2.81,0,.95.25a19.93,19.93,0,0,1,2.18.64,12.1,12.1,0,0,1,4.73,3.31,12.69,12.69,0,0,1,2.41,3.78c.35.88.65,1.79.94,2.66l.16.49A17.77,17.77,0,0,1,70.27,18l0,.62c0,.15,0,.31.06.46a3.4,3.4,0,0,1,.07.91c-.19,2.2-.38,4.19-.6,6.08-.08.73-.22,1.45-.36,2.15,0,.22-.09.45-.13.67a4.12,4.12,0,0,1-.24.85c-.13.32,0,.52.28,1l.17.26a5.07,5.07,0,0,1,.54,3.67,5.88,5.88,0,0,1-2.81,3.84.44.44,0,0,0-.12.11c-.1.29-.19.6-.28.91s-.2.67-.31,1l-.33,1c-.49,1.46-1,3-1.55,4.44-.44,1.17-1,2.32-1.47,3.43l-.05.11a15.1,15.1,0,0,1-3.71,5.34A10.12,10.12,0,0,1,52.63,57.29Zm-8-44.6a.34.34,0,0,0-.33.17l-.06.15a2,2,0,0,0-.17.5l-.13.81c-.15,1-.3,1.93-.38,2.9a24,24,0,0,0,.22,5c.17,1.27.29,2.55.41,3.8l.11,1.13a1.33,1.33,0,0,1-.18.91,7.76,7.76,0,0,1-.5.61,3.63,3.63,0,0,0-.65.9,4.81,4.81,0,0,0-.47,2.12,4.41,4.41,0,0,0,1.21,2.79A1.48,1.48,0,0,1,44,35.6c-.14,1.39-.31,2.81-.51,4.34-.09.67-.18,1.34-.28,2-.18,1.21-.36,2.46-.47,3.7,0,.35-.09.7-.15,1a5.36,5.36,0,0,0-.09,2.07,9.12,9.12,0,0,0,1.19,3.19,8.74,8.74,0,0,0,2.57,2.53,11.06,11.06,0,0,0,5.28,1.73,9.25,9.25,0,0,0,7.19-2.14,14.31,14.31,0,0,0,3.44-5l.05-.11c.5-1.09,1-2.22,1.44-3.36.54-1.45,1.05-3,1.54-4.4l.33-1c.11-.32.2-.64.3-1s.19-.65.3-1a1.25,1.25,0,0,1,.53-.63A4.68,4.68,0,0,0,69,34.53a4,4,0,0,0-.4-2.92l-.15-.23a2,2,0,0,1-.37-2,3.46,3.46,0,0,0,.18-.63c0-.23.08-.45.13-.68.13-.68.26-1.38.34-2.07.21-1.88.41-3.86.6-6a2.58,2.58,0,0,0-.06-.65,5.54,5.54,0,0,1-.07-.57l0-.63a16.19,16.19,0,0,0-.64-4.43l-.16-.49c-.29-.86-.58-1.76-.92-2.61a11.42,11.42,0,0,0-2.21-3.46,11,11,0,0,0-4.31-3,18.28,18.28,0,0,0-2.06-.6c-.3-.08-.61-.15-.91-.24H55.44l-.75.12c-.56.09-1.13.18-1.68.31a11.12,11.12,0,0,0-7.32,5.44c-.12.21-.15.41-.06.47a.6.6,0,0,0,.45.09.37.37,0,0,0,.26-.16l.06-.09c.32-.49.64-1,1-1.47a9.34,9.34,0,0,1,3.55-3,12.71,12.71,0,0,1,4.62-1.2,10.49,10.49,0,0,1,8.58,3A11.55,11.55,0,0,1,67,11.23a24.58,24.58,0,0,1,1.21,4.52,24.75,24.75,0,0,1,.29,4.57,36.48,36.48,0,0,1-.36,3.8c0,.35-.09.7-.13,1-.11.89-.23,1.78-.37,2.69l-.18,1.25-.1.75-.67-.35a7.09,7.09,0,0,0-4.73-.81,2.68,2.68,0,0,1-2.07-.33,6.79,6.79,0,0,0-6.18-.45,1.27,1.27,0,0,1-1.07-.13,6.93,6.93,0,0,0-5-1.24c-.42.06-.86.16-1.28.26l-.6.14-.57.12L45,25.41c-.11-.79-.22-1.59-.31-2.38a32,32,0,0,1-.05-7.81A12.22,12.22,0,0,1,44.86,14q.11-.45.18-.9c0-.18,0-.26-.24-.34Zm8,43-.88,0a10.14,10.14,0,0,1-5-1.61,8.92,8.92,0,0,1-2.28-2.23c-1.48-2-1.29-4.25-1-6.16.2-1.34.4-2.69.58-4,.12-.87.23-1.74.34-2.61s.19-1.49.29-2.23a1.41,1.41,0,0,1,.14-.45l0-.07.16-.46,3.38.88-.19,1.36c-.09.66-.18,1.32-.28,2q-.43,3-.89,6a3.77,3.77,0,0,1-.1.43,1.42,1.42,0,0,0-.08.35,4,4,0,0,0,2,3.61,5.62,5.62,0,0,0,5.85.31,5.93,5.93,0,0,0,1.2-.89s.1-.09,0-.29a.48.48,0,0,0-.44-.09,6.58,6.58,0,0,0-.76.53l-.14.11a4.6,4.6,0,0,1-5.34-.17,3.61,3.61,0,0,1-1.42-3.72c.23-1.4.44-2.83.64-4.21l.23-1.6c.12-.79.23-1.58.34-2.36l.2-1.41.77-.26c.43-.14.86-.29,1.3-.42a1.16,1.16,0,0,1,.91.17,6.85,6.85,0,0,0,5.84,1.11,1.49,1.49,0,0,1,1.45.37A1.4,1.4,0,0,1,59.81,39c-.46,1.62-.91,3.11-1.38,4.55-.18.54-.39,1.07-.59,1.59-.14.36-.29.72-.42,1.09-.05.15-.12.4.06.47a.59.59,0,0,0,.47,0,.35.35,0,0,0,.19-.19l.07-.18c.41-1.1.83-2.24,1.21-3.37.23-.7.45-1.41.67-2.12l.54-1.74a1,1,0,0,1,.89-.62c.75,0,1.5.1,2.31.16l1.46.11-.7,2c-.39,1.11-.79,2.25-1.2,3.38-.13.36-.28.72-.43,1.08l-.16.38-.42,1.08c-.32.83-.65,1.68-1,2.5a13.44,13.44,0,0,1-3.43,4.78A8.07,8.07,0,0,1,52.65,55.71ZM45.77,37.09l-.27,2.07c-.11.87-.22,1.74-.34,2.61-.18,1.35-.38,2.71-.58,4.06-.32,2.12-.31,3.85.8,5.38a7.81,7.81,0,0,0,2,2,9.1,9.1,0,0,0,4.46,1.44,7.21,7.21,0,0,0,5.37-1.53,12.27,12.27,0,0,0,3.14-4.41c.37-.78.7-1.62,1-2.43.14-.36.28-.73.43-1.09l.16-.39c.14-.34.28-.69.41-1,.41-1.13.81-2.27,1.2-3.38l.24-.68h-.07l-2.14-.15c-.17.53-.33,1.06-.49,1.59-.22.72-.44,1.43-.67,2.14-.38,1.15-.81,2.3-1.22,3.41l-.07.18a1.42,1.42,0,0,1-.75.79,1.69,1.69,0,0,1-1.29,0,1.31,1.31,0,0,1-.68-1.83c.14-.38.28-.75.43-1.12s.4-1,.57-1.52c.46-1.42.91-2.9,1.37-4.51a.36.36,0,0,0,0-.36.46.46,0,0,0-.43-.07A8,8,0,0,1,51.62,37c-.42.1-.84.24-1.25.38l-.15,0-.11.76c-.11.79-.22,1.58-.34,2.37l-.23,1.59c-.2,1.39-.4,2.82-.64,4.23a2.55,2.55,0,0,0,1,2.69A3.55,3.55,0,0,0,54,49.2l.14-.1a8.06,8.06,0,0,1,.88-.61,1.48,1.48,0,0,1,1.87.47,1.25,1.25,0,0,1-.19,1.64,7.24,7.24,0,0,1-1.43,1,6.7,6.7,0,0,1-6.9-.36,5.1,5.1,0,0,1-2.5-4.51,2.21,2.21,0,0,1,.12-.66,1.44,1.44,0,0,0,.07-.28q.45-3,.89-6,.15-1,.27-2l.06-.42Zm17,1h-.17a5.2,5.2,0,0,1-3.28-1.43.75.75,0,0,0-.9-.15A5.77,5.77,0,0,1,53,35.86a3.8,3.8,0,0,1-.64-.54l-.13-.13c-.19-.18-.35-.24-.68,0a5.76,5.76,0,0,1-5.85.11,4.08,4.08,0,0,1-2.16-5.08,4.42,4.42,0,0,1,2.76-2.74A5.82,5.82,0,0,1,52,28.1a4,4,0,0,1,.57.49l.14.14c.14.13.29.23.7,0a5.9,5.9,0,0,1,5.93,0,4.15,4.15,0,0,1,.89.67.61.61,0,0,0,.75.17,6,6,0,0,1,4.48,0A4.41,4.41,0,0,1,68.34,34a4.29,4.29,0,0,1-2.14,3.25A5.85,5.85,0,0,1,62.8,38.07ZM62.66,37a5,5,0,0,0,2.95-.67,3.23,3.23,0,0,0,1.64-2.47A3.39,3.39,0,0,0,65,30.54a4.87,4.87,0,0,0-3.71,0,1.67,1.67,0,0,1-1.87-.4,3.15,3.15,0,0,0-.65-.5,4.8,4.8,0,0,0-4.91,0,1.52,1.52,0,0,1-1.94-.16l-.16-.15a3.41,3.41,0,0,0-.43-.37,4.76,4.76,0,0,0-4.66-.56,3.33,3.33,0,0,0-2.13,2.07,3,3,0,0,0,1.66,3.81A4.7,4.7,0,0,0,51,34.21a1.54,1.54,0,0,1,1.94.21l.14.14a2.87,2.87,0,0,0,.47.41A4.69,4.69,0,0,0,58,35.5a1.83,1.83,0,0,1,2,.37A4.23,4.23,0,0,0,62.66,37Z"/></svg>