<svg xmlns="http://www.w3.org/2000/svg" viewBox="0 0 203.31 53.19"><title>Ресурс 1</title><path d="M10.8,2.13c-1,0-2,0-2.75.11a12.34,12.34,0,0,0-2.29.42A5.53,5.53,0,0,0,4,3.49,3.86,3.86,0,0,0,2.82,4.87a4.66,4.66,0,0,0-.42,2,12.77,12.77,0,0,0,.06,1.32,4.25,4.25,0,0,0,.25,1.08,4.6,4.6,0,0,0,.41.86,2.94,2.94,0,0,0,.67.72,6.13,6.13,0,0,0,.89.61,10,10,0,0,0,1.22.55c.51.2,1,.38,1.51.54s1.13.35,1.9.57c1,.28,1.81.56,2.54.85A13,13,0,0,1,14,15.13a7.73,7.73,0,0,1,1.76,1.49,6.36,6.36,0,0,1,1.11,2,7.74,7.74,0,0,1,.42,2.62,9.41,9.41,0,0,1-.65,3.67,5.62,5.62,0,0,1-2,2.45,8.69,8.69,0,0,1-3.12,1.35,18.58,18.58,0,0,1-4.28.43c-1.49,0-2.75,0-3.79-.14a29.21,29.21,0,0,1-3.26-.48l.25-2A44,44,0,0,0,7.18,27a20.51,20.51,0,0,0,2.5-.14,8.93,8.93,0,0,0,2.08-.52,4.69,4.69,0,0,0,1.63-1,4.25,4.25,0,0,0,1-1.62,6.69,6.69,0,0,0,.38-2.35,6.5,6.5,0,0,0-.15-1.44,5.18,5.18,0,0,0-.41-1.17,3.55,3.55,0,0,0-.72-1,7.06,7.06,0,0,0-1-.78,7.19,7.19,0,0,0-1.25-.66c-.5-.22-1-.41-1.49-.58S8.72,15.44,8,15.24l-1.6-.5c-.45-.15-.93-.32-1.43-.51a13,13,0,0,1-1.29-.56c-.35-.18-.71-.4-1.09-.64a5,5,0,0,1-.93-.76A8.39,8.39,0,0,1,1,11.38,4.2,4.2,0,0,1,.43,10.3,8.15,8.15,0,0,1,.12,9,9.13,9.13,0,0,1,0,7.48,9.6,9.6,0,0,1,.41,4.55,5.73,5.73,0,0,1,1.6,2.42a6,6,0,0,1,2-1.4A10.19,10.19,0,0,1,6.23.25,21.16,21.16,0,0,1,9.6,0a42.08,42.08,0,0,1,7,.59l-.22,2A36.64,36.64,0,0,0,10.8,2.13Z" fill="#ffcb1d"/><path d="M36.84,28.78a17.61,17.61,0,0,1-3.77.36,17.71,17.71,0,0,1-3.78-.36,8.82,8.82,0,0,1-2.86-1.13,7.31,7.31,0,0,1-2-1.91,9.34,9.34,0,0,1-1.33-2.8,19.46,19.46,0,0,1-.72-3.69,45.58,45.58,0,0,1-.21-4.67,45.58,45.58,0,0,1,.21-4.67,19.78,19.78,0,0,1,.72-3.69,9.23,9.23,0,0,1,1.33-2.8,7.44,7.44,0,0,1,2-1.91A8.52,8.52,0,0,1,29.29.38,17.71,17.71,0,0,1,33.07,0a17.54,17.54,0,0,1,3.77.36,8.67,8.67,0,0,1,2.85,1.13,7.6,7.6,0,0,1,2,1.91,9.34,9.34,0,0,1,1.33,2.8,19.46,19.46,0,0,1,.72,3.69A45.58,45.58,0,0,1,44,14.58a45.58,45.58,0,0,1-.21,4.67,19.78,19.78,0,0,1-.72,3.69,9.23,9.23,0,0,1-1.33,2.8,7.44,7.44,0,0,1-2,1.91A8.46,8.46,0,0,1,36.84,28.78ZM33.07,27a13.89,13.89,0,0,0,2.43-.2,10.6,10.6,0,0,0,1.92-.52,4.33,4.33,0,0,0,1.46-.91,9.35,9.35,0,0,0,1.07-1.16,5.05,5.05,0,0,0,.74-1.49,16.5,16.5,0,0,0,.47-1.7,15.31,15.31,0,0,0,.26-2c.06-.8.1-1.51.12-2.14s0-1.41,0-2.35,0-1.73,0-2.36-.05-1.34-.12-2.14a15.31,15.31,0,0,0-.26-2,16.5,16.5,0,0,0-.47-1.7,5.05,5.05,0,0,0-.74-1.49,8.12,8.12,0,0,0-1.07-1.16,4.47,4.47,0,0,0-1.46-.9,10.6,10.6,0,0,0-1.92-.52,13.89,13.89,0,0,0-2.43-.2,17,17,0,0,0-2.23.14A7.15,7.15,0,0,0,29,2.75a11.06,11.06,0,0,0-1.42.7,3.63,3.63,0,0,0-1.08,1,13.79,13.79,0,0,0-.8,1.19,5.05,5.05,0,0,0-.55,1.45c-.14.59-.26,1.13-.34,1.61a15,15,0,0,0-.19,1.83c0,.74-.07,1.39-.08,2s0,1.28,0,2.14,0,1.74,0,2.36,0,1.33.11,2.14a14.84,14.84,0,0,0,.26,2c.11.51.27,1.08.47,1.7a5,5,0,0,0,.74,1.5,8.75,8.75,0,0,0,1.08,1.16,4.84,4.84,0,0,0,1.47.91,10.5,10.5,0,0,0,1.93.52A17.83,17.83,0,0,0,33.07,27Z" fill="#ffcb1d"/><path d="M66.36.3v2h-8V28.84h-2.4V2.33h-8V.3Z" fill="#ffcb1d"/><path d="M71.05,28.84H68.59L79,1.63A3.28,3.28,0,0,1,79.72.4a1.44,1.44,0,0,1,1-.4c.79,0,1.39.54,1.8,1.63L92.82,28.84H90.26l-3.17-8.46H74.23ZM75,18.38H86.33L80.67,3.23Z" fill="#ffcb1d"/><path d="M107.33,28.35V.81a49.4,49.4,0,0,1,9.3-.81,27,27,0,0,1,3.25.18,16.77,16.77,0,0,1,2.65.53,9.28,9.28,0,0,1,2.12.91,8.45,8.45,0,0,1,1.63,1.25,6.71,6.71,0,0,1,1.21,1.63,11.44,11.44,0,0,1,.84,2,14.66,14.66,0,0,1,.53,2.35c.13.89.22,1.78.28,2.68s.08,1.93.08,3.06,0,2.16-.08,3.06a26.44,26.44,0,0,1-.28,2.68,16.12,16.12,0,0,1-.53,2.35,12.28,12.28,0,0,1-.84,2,6.46,6.46,0,0,1-1.21,1.63,8.79,8.79,0,0,1-3.75,2.16,16.77,16.77,0,0,1-2.65.53,26.84,26.84,0,0,1-3.25.18A49,49,0,0,1,107.33,28.35Zm8.5-23.6a20.73,20.73,0,0,0-2.71.2V24.2a18.06,18.06,0,0,0,2.71.21,12.3,12.3,0,0,0,2.79-.28,10,10,0,0,0,2-.67A3.56,3.56,0,0,0,122,22.27a10,10,0,0,0,.83-1.45,6.68,6.68,0,0,0,.42-1.88c.09-.83.15-1.5.17-2s0-1.31,0-2.33,0-1.8,0-2.33-.07-1.21-.17-2a7,7,0,0,0-.42-1.88A8,8,0,0,0,122,6.89a3.49,3.49,0,0,0-1.35-1.19,10,10,0,0,0-2-.67A12.24,12.24,0,0,0,115.83,4.75Z" fill="#ffcb1d"/><path d="M155.87.3V19.22a14.73,14.73,0,0,1-.5,4A8.1,8.1,0,0,1,154,26.1a6.54,6.54,0,0,1-2.25,1.79,11,11,0,0,1-2.95,1,23.48,23.48,0,0,1-7.23,0,10.52,10.52,0,0,1-2.95-1,6.49,6.49,0,0,1-2.26-1.79A8.1,8.1,0,0,1,135,23.26a14.73,14.73,0,0,1-.5-4V.3h5.72V19.54a4.9,4.9,0,0,0,1.12,3.64c.75.72,2,1.08,3.88,1.08A5.51,5.51,0,0,0,149,23.18a4.91,4.91,0,0,0,1.13-3.64V.3Z" fill="#ffcb1d"/><path d="M179.47.44v4.5h-7.88a11.3,11.3,0,0,0-2.08.15,2.13,2.13,0,0,0-1.8,1.77,10.81,10.81,0,0,0-.13,1.94V12h11.34v4.61H167.58v3.7a13.41,13.41,0,0,0,.06,1.39,4,4,0,0,0,.23,1,1.91,1.91,0,0,0,.43.72,2.07,2.07,0,0,0,.73.45,4.55,4.55,0,0,0,1.07.25,12.77,12.77,0,0,0,1.49.06h7.88v4.48c-3,.15-5.6.22-7.75.22q-1.32,0-2.19,0t-2-.18a8.94,8.94,0,0,1-1.89-.42,7.91,7.91,0,0,1-1.53-.78,4,4,0,0,1-1.25-1.24,7,7,0,0,1-.75-1.82,9.46,9.46,0,0,1-.29-2.49V7.21a9.9,9.9,0,0,1,.29-2.49,6.69,6.69,0,0,1,.75-1.82,3.83,3.83,0,0,1,1.26-1.24,7.91,7.91,0,0,1,1.53-.78,8.26,8.26,0,0,1,1.88-.42c.77-.09,1.44-.16,2-.18s1.3,0,2.19,0C174.09.23,176.67.3,179.47.44Z" fill="#ffcb1d"/><path d="M202.62.3V5h-7V28.84h-5.82V5h-7V.3Z" fill="#ffcb1d"/><path d="M15.16,52.77a.2.2,0,0,1,0,.11A.24.24,0,0,1,15,53l-.21,0-.33,0-.39,0a1,1,0,0,1-.24-.06.3.3,0,0,1-.14-.1.37.37,0,0,1-.07-.14l-1.24-3a8.46,8.46,0,0,0-.5-1,2.71,2.71,0,0,0-.6-.69,2.31,2.31,0,0,0-.76-.4,3.39,3.39,0,0,0-1-.13H8.62v5.32a.14.14,0,0,1,0,.09.37.37,0,0,1-.14.07,1,1,0,0,1-.22,0l-.3,0-.3,0-.23,0a.37.37,0,0,1-.14-.07.14.14,0,0,1,0-.09V47.47H6.28a3.46,3.46,0,0,0-1,.13,2.4,2.4,0,0,0-.78.4,2.74,2.74,0,0,0-.61.69,6.19,6.19,0,0,0-.51,1l-1.23,3a.61.61,0,0,1-.07.14.32.32,0,0,1-.13.1A.64.64,0,0,1,1.7,53a2,2,0,0,1-.37,0L1,53A.81.81,0,0,1,.8,53a.36.36,0,0,1-.12-.08.21.21,0,0,1,0-.11s0-.08,0-.15a.6.6,0,0,1,.08-.21l1.26-3a6.72,6.72,0,0,1,.46-.93A4.1,4.1,0,0,1,3,47.73a3.6,3.6,0,0,1,.64-.54,3.13,3.13,0,0,1,.76-.36v0a3,3,0,0,1-.56-.24,2.54,2.54,0,0,1-.54-.43,3.65,3.65,0,0,1-.52-.69,7.22,7.22,0,0,1-.51-1L1.22,41.76l-.07-.18a.63.63,0,0,1,0-.19.2.2,0,0,1,0-.11.29.29,0,0,1,.1-.08.72.72,0,0,1,.2,0l.33,0,.39,0a.83.83,0,0,1,.26.06.5.5,0,0,1,.16.11.4.4,0,0,1,.08.16l1,2.67a6,6,0,0,0,.45,1,2.52,2.52,0,0,0,.55.65,2,2,0,0,0,.7.37,3.09,3.09,0,0,0,.91.12h.91V41.35a.14.14,0,0,1,0-.09.37.37,0,0,1,.14-.07l.23,0,.3,0,.3,0,.22,0a.31.31,0,0,1,.14.07.14.14,0,0,1,0,.09v4.89h.91a3.14,3.14,0,0,0,.91-.12,2.07,2.07,0,0,0,.72-.38,2.42,2.42,0,0,0,.57-.65,4.84,4.84,0,0,0,.46-.94l1.06-2.67a.8.8,0,0,1,.08-.16.35.35,0,0,1,.13-.11.58.58,0,0,1,.22-.06l.36,0,.33,0a.64.64,0,0,1,.2,0,.21.21,0,0,1,.1.08.18.18,0,0,1,0,.11.58.58,0,0,1,0,.19,1.34,1.34,0,0,1-.07.18l-1.11,2.65a6.55,6.55,0,0,1-.52,1,3.67,3.67,0,0,1-.54.68,2.48,2.48,0,0,1-.54.42,3.19,3.19,0,0,1-.54.24v0a3.1,3.1,0,0,1,.78.36,3.27,3.27,0,0,1,.64.54,4.28,4.28,0,0,1,.54.74,6.46,6.46,0,0,1,.46,1l1.25,3a.76.76,0,0,1,0,.11l0,.1s0,.06,0,.09S15.16,52.75,15.16,52.77Z" fill="#ffcb1d"/><path d="M27,52.7a.23.23,0,0,1,0,.14.22.22,0,0,1-.11.1.53.53,0,0,1-.21.06,1.78,1.78,0,0,1-.35,0l-.34,0-.22-.06a.18.18,0,0,1-.11-.1.32.32,0,0,1,0-.14V45.45c0-.32,0-.63,0-1s0-.63,0-.94a10.75,10.75,0,0,1-.6,1c-.21.31-.43.62-.66.94L19.28,52.7l-.11.15A.41.41,0,0,1,19,53l-.19.06-.27,0-.28,0L18.11,53a.19.19,0,0,1-.1-.1.32.32,0,0,1,0-.14V41.45a.35.35,0,0,1,0-.14.29.29,0,0,1,.11-.11.58.58,0,0,1,.22-.06l.34,0a1.42,1.42,0,0,1,.57.08.25.25,0,0,1,.15.24v7.32c0,.31,0,.61,0,.91s0,.6,0,.89l.54-.88c.18-.29.38-.58.59-.87l5.15-7.37.12-.15a.56.56,0,0,1,.15-.1,1.17,1.17,0,0,1,.2-.06l.29,0,.28,0a.38.38,0,0,1,.18.06.27.27,0,0,1,.1.11.32.32,0,0,1,0,.14V52.7Z" fill="#ffcb1d"/><path d="M38.27,41.89a2.13,2.13,0,0,1,0,.27.65.65,0,0,1-.07.21.53.53,0,0,1-.11.14.25.25,0,0,1-.15,0H34.4V52.71a.23.23,0,0,1,0,.14.22.22,0,0,1-.11.1A.53.53,0,0,1,34,53l-.35,0-.34,0L33.13,53a.18.18,0,0,1-.11-.1.32.32,0,0,1,0-.14V42.56H29.47a.25.25,0,0,1-.15,0,.4.4,0,0,1-.11-.14.65.65,0,0,1-.07-.21,1.14,1.14,0,0,1,0-.27,2.46,2.46,0,0,1,0-.28,1,1,0,0,1,.07-.22.4.4,0,0,1,.11-.14.25.25,0,0,1,.15,0h8.45a.25.25,0,0,1,.15,0,.4.4,0,0,1,.11.14.71.71,0,0,1,.07.22A2.3,2.3,0,0,1,38.27,41.89Z" fill="#ffcb1d"/><path d="M48.65,52.7a.23.23,0,0,1,0,.14.22.22,0,0,1-.11.1.53.53,0,0,1-.21.06A1.73,1.73,0,0,1,48,53l-.35,0-.22-.06a.18.18,0,0,1-.11-.1.32.32,0,0,1,0-.14V42.48h-3.4c-.14,1.33-.29,2.53-.46,3.57a25.8,25.8,0,0,1-.58,2.76,11.88,11.88,0,0,1-.71,2,5.44,5.44,0,0,1-.86,1.34,3,3,0,0,1-1,.75,3,3,0,0,1-1.2.24.28.28,0,0,1-.13,0,.27.27,0,0,1-.1-.11.53.53,0,0,1-.06-.21,2.92,2.92,0,0,1,0-.33,3.16,3.16,0,0,1,0-.35.9.9,0,0,1,.05-.22.19.19,0,0,1,.09-.12.28.28,0,0,1,.13,0,1.64,1.64,0,0,0,.83-.22,2.26,2.26,0,0,0,.72-.7,5.68,5.68,0,0,0,.62-1.26,13.86,13.86,0,0,0,.53-1.88c.16-.74.32-1.6.46-2.58s.28-2.1.41-3.36a.78.78,0,0,1,.15-.44.42.42,0,0,1,.33-.14h5.15a.52.52,0,0,1,.35.14.58.58,0,0,1,.14.44V52.7Z" fill="#ffcb1d"/><path d="M62.18,47a8.73,8.73,0,0,1-.33,2.47,5.51,5.51,0,0,1-1,2,4.59,4.59,0,0,1-1.65,1.3,5.94,5.94,0,0,1-4.51,0,4.38,4.38,0,0,1-1.59-1.19,5.29,5.29,0,0,1-.95-1.88,9.13,9.13,0,0,1-.32-2.5,8.73,8.73,0,0,1,.33-2.47,5.66,5.66,0,0,1,1-2,4.57,4.57,0,0,1,1.65-1.29A5.38,5.38,0,0,1,57.11,41a5.59,5.59,0,0,1,2.21.41,4.06,4.06,0,0,1,1.58,1.19,5.29,5.29,0,0,1,.95,1.88A8.39,8.39,0,0,1,62.18,47Zm-1.5.14a9,9,0,0,0-.18-1.83,4.67,4.67,0,0,0-.6-1.54,3.17,3.17,0,0,0-1.12-1.06A3.57,3.57,0,0,0,57,42.28a3.64,3.64,0,0,0-1.67.36,3.08,3.08,0,0,0-1.15,1,4.41,4.41,0,0,0-.66,1.51A8,8,0,0,0,53.34,47a9.21,9.21,0,0,0,.18,1.85,4.59,4.59,0,0,0,.6,1.54,3,3,0,0,0,1.12,1,3.57,3.57,0,0,0,1.75.39,3.64,3.64,0,0,0,1.67-.36,3.08,3.08,0,0,0,1.15-1,4.36,4.36,0,0,0,.66-1.5A8.11,8.11,0,0,0,60.68,47.1Z" fill="#ffcb1d"/><path d="M73.65,49.5a3.72,3.72,0,0,1-.3,1.52,2.77,2.77,0,0,1-.91,1.13,4.2,4.2,0,0,1-1.49.7,8,8,0,0,1-2.07.24h-.7c-.24,0-.46,0-.69,0l-.65,0c-.21,0-.41,0-.6-.06a1.06,1.06,0,0,1-.66-.32,1,1,0,0,1-.23-.74V42.23a1.14,1.14,0,0,1,.23-.75,1,1,0,0,1,.66-.31l.66-.06.66,0,.66,0h.69a7.58,7.58,0,0,1,1.89.21,3.94,3.94,0,0,1,1.34.59,2.43,2.43,0,0,1,.8,1,2.93,2.93,0,0,1,.26,1.28,2.7,2.7,0,0,1-.47,1.58,2.62,2.62,0,0,1-1.39,1,3,3,0,0,1,1.74,1A2.93,2.93,0,0,1,73.65,49.5Zm-1.87-5.35a1.94,1.94,0,0,0-.16-.82,1.42,1.42,0,0,0-.52-.6,2.93,2.93,0,0,0-.94-.37,6.23,6.23,0,0,0-1.4-.13c-.41,0-.79,0-1.12,0l-.85.07v3.85H69a3.37,3.37,0,0,0,2.06-.54A1.74,1.74,0,0,0,71.78,44.15Zm.4,5.41a2.22,2.22,0,0,0-.19-1,1.75,1.75,0,0,0-.6-.7,2.8,2.8,0,0,0-1-.42,6.79,6.79,0,0,0-1.45-.14H66.79v4.39a4.35,4.35,0,0,0,.52.06l.55,0,.56,0H69a5.5,5.5,0,0,0,1.44-.16,3,3,0,0,0,1-.45,1.81,1.81,0,0,0,.59-.73A2.47,2.47,0,0,0,72.18,49.56Z" fill="#ffcb1d"/><path d="M85.85,52.7a.23.23,0,0,1,0,.14.22.22,0,0,1-.11.1.53.53,0,0,1-.21.06,1.78,1.78,0,0,1-.35,0l-.34,0-.22-.06a.18.18,0,0,1-.11-.1.32.32,0,0,1,0-.14V45.45c0-.32,0-.63,0-1s0-.63,0-.94a10.75,10.75,0,0,1-.6,1c-.21.31-.43.62-.66.94L78.16,52.7l-.11.15a.41.41,0,0,1-.13.1l-.19.06-.27,0-.28,0L77,53a.19.19,0,0,1-.1-.1.32.32,0,0,1,0-.14V41.45a.35.35,0,0,1,0-.14A.29.29,0,0,1,77,41.2a.58.58,0,0,1,.22-.06l.34,0a1.42,1.42,0,0,1,.57.08.25.25,0,0,1,.15.24v7.32c0,.31,0,.61,0,.91s0,.6-.05.89l.54-.88c.18-.29.38-.58.59-.87l5.15-7.37.12-.15a.56.56,0,0,1,.15-.1,1.17,1.17,0,0,1,.2-.06l.29,0,.28,0a.38.38,0,0,1,.18.06.27.27,0,0,1,.1.11.32.32,0,0,1,0,.14V52.7Z" fill="#ffcb1d"/><path d="M98.82,52.7a.23.23,0,0,1,0,.14.22.22,0,0,1-.11.1.53.53,0,0,1-.21.06,1.78,1.78,0,0,1-.35,0l-.34,0-.22-.06a.18.18,0,0,1-.11-.1.32.32,0,0,1,0-.14V45.45c0-.32,0-.63,0-1s0-.63,0-.94a10.75,10.75,0,0,1-.6,1c-.21.31-.43.62-.66.94L91.13,52.7l-.11.15a.41.41,0,0,1-.13.1L90.7,53l-.27,0-.28,0L90,53a.19.19,0,0,1-.1-.1.32.32,0,0,1,0-.14V41.45a.35.35,0,0,1,0-.14A.29.29,0,0,1,90,41.2a.58.58,0,0,1,.22-.06l.34,0a1.42,1.42,0,0,1,.57.08.25.25,0,0,1,.15.24v7.32c0,.31,0,.61,0,.91s0,.6-.05.89l.54-.88c.18-.29.38-.58.59-.87l5.15-7.37a1,1,0,0,1,.12-.15.56.56,0,0,1,.15-.1,1.17,1.17,0,0,1,.2-.06l.29,0,.28,0a.38.38,0,0,1,.18.06.27.27,0,0,1,.1.11.32.32,0,0,1,0,.14V52.7ZM97.68,36.19a4.19,4.19,0,0,1-.19,1.29,3,3,0,0,1-.59,1.06,2.79,2.79,0,0,1-1,.71,3.9,3.9,0,0,1-1.49.26A4,4,0,0,1,93,39.29a2.71,2.71,0,0,1-1-.65,3.08,3.08,0,0,1-.66-1,4.07,4.07,0,0,1-.23-1.4.31.31,0,0,1,0-.17.22.22,0,0,1,.12-.11,1,1,0,0,1,.22-.06l.34,0a1.56,1.56,0,0,1,.35,0,.38.38,0,0,1,.18.08.29.29,0,0,1,.08.14,1.25,1.25,0,0,1,0,.21,2.26,2.26,0,0,0,.13.79,1.61,1.61,0,0,0,.38.63,1.7,1.7,0,0,0,.62.42,2.26,2.26,0,0,0,.85.15,2.1,2.1,0,0,0,.82-.15,1.75,1.75,0,0,0,.61-.42,1.83,1.83,0,0,0,.38-.65,2.64,2.64,0,0,0,.13-.81,1.09,1.09,0,0,1,0-.19.2.2,0,0,1,.08-.13.42.42,0,0,1,.19-.08,1.56,1.56,0,0,1,.35,0l.34,0a.58.58,0,0,1,.22.06.19.19,0,0,1,.12.11A.88.88,0,0,1,97.68,36.19Z" fill="#ffcb1d"/><path d="M116.41,52.77a.2.2,0,0,1,0,.11.24.24,0,0,1-.11.08l-.21,0-.32,0-.39,0-.24-.06a.3.3,0,0,1-.14-.1.37.37,0,0,1-.07-.14l-1.23-3a5,5,0,0,0-.49-1,2.62,2.62,0,0,0-.63-.69,2.34,2.34,0,0,0-.81-.39,4,4,0,0,0-1-.13h-.94v5.32a.14.14,0,0,1-.05.09.37.37,0,0,1-.14.07l-.23,0-.3,0-.3,0a1,1,0,0,1-.22,0,.37.37,0,0,1-.14-.07.14.14,0,0,1-.05-.09V41.35a.14.14,0,0,1,.05-.09.37.37,0,0,1,.14-.07l.22,0,.3,0,.3,0,.23,0a.37.37,0,0,1,.14.07.14.14,0,0,1,.05.09v4.89h.94a3.38,3.38,0,0,0,.93-.12,2.34,2.34,0,0,0,.76-.37,2.72,2.72,0,0,0,.61-.65,4.21,4.21,0,0,0,.47-1l1.06-2.67a.77.77,0,0,1,.07-.16.35.35,0,0,1,.13-.11.58.58,0,0,1,.23-.06l.37,0,.33,0a.64.64,0,0,1,.2,0,.21.21,0,0,1,.1.08.18.18,0,0,1,0,.11,1.11,1.11,0,0,1,0,.19l-.06.18-1.11,2.65a5.3,5.3,0,0,1-.52,1,3.71,3.71,0,0,1-.57.68,2.43,2.43,0,0,1-.58.42,3.46,3.46,0,0,1-.57.24v0a3.62,3.62,0,0,1,.8.36,3.51,3.51,0,0,1,.68.54,3.92,3.92,0,0,1,.57.74,6.47,6.47,0,0,1,.47,1l1.26,3a.76.76,0,0,1,0,.11.36.36,0,0,1,0,.1s0,.06,0,.09S116.41,52.75,116.41,52.77Z" fill="#ffcb1d"/><path d="M128.8,47a8.73,8.73,0,0,1-.33,2.47,5.51,5.51,0,0,1-1,2,4.59,4.59,0,0,1-1.65,1.3,5.94,5.94,0,0,1-4.51,0,4.38,4.38,0,0,1-1.59-1.19,5.29,5.29,0,0,1-.95-1.88,9.13,9.13,0,0,1-.32-2.5,8.73,8.73,0,0,1,.33-2.47,5.66,5.66,0,0,1,1-2,4.57,4.57,0,0,1,1.65-1.29,5.38,5.38,0,0,1,2.31-.46,5.59,5.59,0,0,1,2.21.41,4.06,4.06,0,0,1,1.58,1.19,5.29,5.29,0,0,1,.95,1.88A8.73,8.73,0,0,1,128.8,47Zm-1.5.14a9,9,0,0,0-.18-1.83,4.67,4.67,0,0,0-.6-1.54,3.17,3.17,0,0,0-1.12-1.06,3.57,3.57,0,0,0-1.75-.39,3.64,3.64,0,0,0-1.67.36,3.08,3.08,0,0,0-1.15,1,4.41,4.41,0,0,0-.66,1.51A8,8,0,0,0,120,47a9.22,9.22,0,0,0,.18,1.85,4.59,4.59,0,0,0,.6,1.54,3,3,0,0,0,1.12,1,3.57,3.57,0,0,0,1.75.39,3.64,3.64,0,0,0,1.67-.36,3.08,3.08,0,0,0,1.15-1,4.36,4.36,0,0,0,.66-1.5A8.11,8.11,0,0,0,127.3,47.1Z" fill="#ffcb1d"/><path d="M144.74,52.55a.48.48,0,0,1-.1.37.9.9,0,0,1-.54.11h-.36l-.23,0a.19.19,0,0,1-.12-.09.46.46,0,0,1-.05-.14l-.85-6.84c0-.24-.05-.5-.08-.76s-.05-.54-.08-.81-.05-.55-.07-.82-.05-.54-.08-.78v-.27c-.08.24-.16.5-.25.76l-.27.81c-.09.27-.19.55-.28.83l-.26.79-2.46,6.9a1.74,1.74,0,0,1-.1.23.64.64,0,0,1-.13.15.52.52,0,0,1-.2.08,1.33,1.33,0,0,1-.3,0l-.29,0a.59.59,0,0,1-.2-.07.38.38,0,0,1-.14-.14.9.9,0,0,1-.11-.24l-2.36-6.91c-.09-.24-.18-.5-.27-.76l-.27-.82-.26-.83c-.08-.27-.16-.54-.22-.78l0,.27c0,.25-.05.51-.08.78l-.09.82-.09.81c0,.27-.05.52-.08.76l-.8,6.7a.6.6,0,0,1-.05.22.24.24,0,0,1-.13.13.7.7,0,0,1-.23.06h-.37l-.36,0a.31.31,0,0,1-.19-.08.23.23,0,0,1-.07-.14.86.86,0,0,1,0-.22l1.25-10.69a1,1,0,0,1,.23-.5.68.68,0,0,1,.52-.17h.62a2,2,0,0,1,.46,0,.73.73,0,0,1,.33.16.85.85,0,0,1,.23.29,3.39,3.39,0,0,1,.19.45l1.79,5.28c.1.32.21.63.31.93l.3.91q.15.45.27.87c.08.28.16.56.23.82h0l.25-.86.27-.91c.09-.31.19-.61.3-.91l.3-.88,1.8-5.26a3.73,3.73,0,0,1,.18-.43.85.85,0,0,1,.23-.29,1,1,0,0,1,.31-.17,1.35,1.35,0,0,1,.43-.06h.62a.88.88,0,0,1,.53.14.67.67,0,0,1,.22.5Z" fill="#ffcb1d"/><path d="M156.56,52.7a.23.23,0,0,1,0,.14.22.22,0,0,1-.11.1.53.53,0,0,1-.21.06l-.34,0-.35,0-.22-.06a.18.18,0,0,1-.11-.1.32.32,0,0,1,0-.14V42.45h-5.71V52.7a.23.23,0,0,1,0,.14.22.22,0,0,1-.11.1.53.53,0,0,1-.21.06,1.78,1.78,0,0,1-.35,0l-.34,0-.22-.06a.18.18,0,0,1-.11-.1.32.32,0,0,1,0-.14V41.77a.61.61,0,0,1,.14-.44.48.48,0,0,1,.35-.14h7.58a.48.48,0,0,1,.34.14.63.63,0,0,1,.14.44V52.7Z" fill="#ffcb1d"/><path d="M168.8,52.7a.23.23,0,0,1,0,.14.22.22,0,0,1-.11.1.53.53,0,0,1-.21.06,1.73,1.73,0,0,1-.34,0l-.35,0-.22-.06a.18.18,0,0,1-.11-.1.32.32,0,0,1,0-.14V42.48H164c-.14,1.33-.29,2.53-.46,3.57a25.8,25.8,0,0,1-.58,2.76,11.88,11.88,0,0,1-.71,2,5.44,5.44,0,0,1-.86,1.34,3,3,0,0,1-1,.75,3,3,0,0,1-1.2.24.28.28,0,0,1-.13,0,.27.27,0,0,1-.1-.11.53.53,0,0,1-.06-.21,2.92,2.92,0,0,1,0-.33,3.16,3.16,0,0,1,0-.35.9.9,0,0,1,.05-.22.19.19,0,0,1,.09-.12.28.28,0,0,1,.13,0,1.64,1.64,0,0,0,.83-.22,2.26,2.26,0,0,0,.72-.7,5.68,5.68,0,0,0,.62-1.26,13.86,13.86,0,0,0,.53-1.88c.16-.74.32-1.6.46-2.58s.28-2.1.41-3.36a.78.78,0,0,1,.15-.44.42.42,0,0,1,.33-.14h5.15a.52.52,0,0,1,.35.14.58.58,0,0,1,.14.44V52.7Z" fill="#ffcb1d"/><path d="M181.59,46.5a.74.74,0,0,1-.23.62.76.76,0,0,1-.44.17h-7.36a8.37,8.37,0,0,0,.2,1.89,3.85,3.85,0,0,0,.65,1.45,3,3,0,0,0,1.18.93,4.34,4.34,0,0,0,1.79.32,5.6,5.6,0,0,0,1.35-.14,7.65,7.65,0,0,0,1-.3c.29-.11.53-.21.71-.3a1.17,1.17,0,0,1,.4-.14.2.2,0,0,1,.13,0,.19.19,0,0,1,.09.12.81.81,0,0,1,.05.21,2.69,2.69,0,0,1,0,.31,1,1,0,0,1,0,.17c0,.06,0,.1,0,.15a.69.69,0,0,1-.05.13.91.91,0,0,1-.1.13,2.09,2.09,0,0,1-.37.22,5.8,5.8,0,0,1-.81.31,10.45,10.45,0,0,1-1.16.28,8,8,0,0,1-1.42.12A5.94,5.94,0,0,1,175,52.8a4.2,4.2,0,0,1-1.62-1.16,5.13,5.13,0,0,1-1-1.9,9,9,0,0,1-.34-2.62,8.75,8.75,0,0,1,.35-2.56,5.49,5.49,0,0,1,1-1.92A4.35,4.35,0,0,1,175,41.43,4.93,4.93,0,0,1,177,41a4.66,4.66,0,0,1,2.07.42,4,4,0,0,1,1.41,1.14,4.68,4.68,0,0,1,.81,1.66,7.59,7.59,0,0,1,.26,2v.28Zm-1.47-.44a4.19,4.19,0,0,0-.79-2.8,2.93,2.93,0,0,0-2.4-1,3,3,0,0,0-1.42.32,3.27,3.27,0,0,0-1,.84,3.81,3.81,0,0,0-.65,1.21,5.31,5.31,0,0,0-.26,1.44Z" fill="#ffcb1d"/><path d="M192.94,52.77a.2.2,0,0,1,0,.11.24.24,0,0,1-.11.08l-.21,0-.32,0-.39,0-.24-.06a.3.3,0,0,1-.14-.1.37.37,0,0,1-.07-.14l-1.23-3a5,5,0,0,0-.49-1,2.62,2.62,0,0,0-.63-.69,2.34,2.34,0,0,0-.81-.39,4,4,0,0,0-1-.13h-.94v5.32a.14.14,0,0,1-.05.09.37.37,0,0,1-.14.07l-.23,0-.3,0-.3,0a1,1,0,0,1-.22,0,.37.37,0,0,1-.14-.07.14.14,0,0,1-.05-.09V41.35a.14.14,0,0,1,.05-.09.37.37,0,0,1,.14-.07l.22,0,.3,0,.3,0,.23,0a.37.37,0,0,1,.14.07.14.14,0,0,1,.05.09v4.89h.94a3.38,3.38,0,0,0,.93-.12,2.34,2.34,0,0,0,.76-.37,2.72,2.72,0,0,0,.61-.65,4.21,4.21,0,0,0,.47-1l1.06-2.67a.77.77,0,0,1,.07-.16.35.35,0,0,1,.13-.11.58.58,0,0,1,.23-.06l.37,0,.33,0a.64.64,0,0,1,.2,0,.21.21,0,0,1,.1.08.18.18,0,0,1,0,.11,1.11,1.11,0,0,1,0,.19l-.06.18-1.11,2.65a5.3,5.3,0,0,1-.52,1,3.71,3.71,0,0,1-.57.68,2.43,2.43,0,0,1-.58.42,3.46,3.46,0,0,1-.57.24v0a3.62,3.62,0,0,1,.8.36,3.51,3.51,0,0,1,.68.54,3.92,3.92,0,0,1,.57.74,6.47,6.47,0,0,1,.47,1l1.26,3a.76.76,0,0,1,0,.11.36.36,0,0,1,0,.1s0,.06,0,.09A.1.1,0,0,1,192.94,52.77Z" fill="#ffcb1d"/><path d="M203.31,51a2.26,2.26,0,0,1,0,.27,1.12,1.12,0,0,1,0,.21.77.77,0,0,1-.07.16,1.39,1.39,0,0,1-.2.23,4.28,4.28,0,0,1-.52.41,4.23,4.23,0,0,1-.82.44,5.61,5.61,0,0,1-1,.3,5.14,5.14,0,0,1-3.07-.27,3.72,3.72,0,0,1-1.45-1.16,5.29,5.29,0,0,1-.89-1.88,9.91,9.91,0,0,1-.3-2.57,9.27,9.27,0,0,1,.38-2.81,5.19,5.19,0,0,1,1-1.91,4.1,4.1,0,0,1,1.53-1.1,4.88,4.88,0,0,1,1.88-.35,4.93,4.93,0,0,1,1,.11,4.52,4.52,0,0,1,.9.28,4.19,4.19,0,0,1,.73.4,3.94,3.94,0,0,1,.47.38,1.12,1.12,0,0,1,.2.24.49.49,0,0,1,.08.18,1.43,1.43,0,0,1,0,.22,2.35,2.35,0,0,1,0,.28.87.87,0,0,1-.1.5.29.29,0,0,1-.22.14.66.66,0,0,1-.41-.22,5.59,5.59,0,0,0-.63-.49,4.63,4.63,0,0,0-.92-.49,3.35,3.35,0,0,0-1.29-.22,2.74,2.74,0,0,0-2.39,1.24,6.42,6.42,0,0,0-.84,3.59,8.44,8.44,0,0,0,.23,2.07,4.39,4.39,0,0,0,.65,1.48,2.7,2.7,0,0,0,1,.88,3.2,3.2,0,0,0,1.37.29,3.08,3.08,0,0,0,1.26-.24,5.26,5.26,0,0,0,.95-.52,7.57,7.57,0,0,0,.67-.52c.18-.16.31-.24.4-.24a.2.2,0,0,1,.13,0,.28.28,0,0,1,.09.14,1.2,1.2,0,0,1,.05.22A.62.62,0,0,1,203.31,51Z" fill="#ffcb1d"/></svg>